<?xml version="1.0" standalone="no"?>
<!DOCTYPE svg PUBLIC "-//W3C//DTD SVG 20010904//EN"
 "http://www.w3.org/TR/2001/REC-SVG-20010904/DTD/svg10.dtd">
<svg version="1.0" xmlns="http://www.w3.org/2000/svg"
 width="920.000000pt" height="920.000000pt" viewBox="0 0 920.000000 920.000000"
 preserveAspectRatio="xMidYMid meet">
<metadata>
Created by potrace 1.14, written by Peter Selinger 2001-2017
</metadata>
<g transform="translate(0.000000,920.000000) scale(0.100000,-0.100000)"
fill="#000000" stroke="none">
<path d="M4475 7702 c-65 -21 -127 -34 -151 -33 -75 3 -331 -49 -479 -98 -145
-47 -444 -189 -425 -201 6 -4 -239 -89 -544 -191 l-555 -184 -410 -565 c-225
-311 -540 -745 -700 -965 l-291 -400 0 -1196 0 -1196 340 -468 c188 -258 503
-692 701 -965 l361 -497 176 -57 c98 -31 265 -86 372 -121 107 -35 371 -120
585 -190 215 -70 478 -155 585 -190 107 -35 272 -89 367 -119 94 -31 178 -56
187 -56 9 0 114 32 234 71 119 39 287 93 372 121 85 28 259 84 385 125 655
213 847 276 1085 353 l195 63 302 416 c166 229 482 664 702 966 l400 550 1
1194 0 1193 -107 147 c-58 80 -123 169 -143 196 -21 28 -187 257 -371 510
-730 1009 -760 1049 -777 1067 -9 9 -298 110 -642 224 -344 113 -632 213 -641
220 -9 8 -25 12 -35 8 -13 -4 -15 -3 -6 3 20 15 -221 117 -373 159 -98 27
-247 55 -261 50 -8 -3 -14 -2 -14 2 0 4 -12 9 -26 10 -15 1 -84 20 -154 42
-70 22 -129 39 -131 39 -2 -1 -53 -17 -114 -37z m375 -640 c330 -71 582 -211
811 -449 98 -102 247 -310 232 -323 -29 -27 -427 -310 -436 -310 -10 0 -595
189 -1627 525 -110 36 -237 77 -282 91 -46 14 -85 28 -87 30 -8 7 62 74 144
138 228 178 453 270 780 320 77 11 373 -3 465 -22z m-1850 -583 c305 -99 746
-243 980 -319 234 -76 558 -182 720 -234 162 -53 299 -97 304 -99 5 -2 -649
-481 -1454 -1066 -804 -585 -1465 -1059 -1470 -1055 -4 5 -204 279 -444 609
-384 528 -436 604 -434 632 2 25 148 232 613 872 336 462 615 841 620 841 6 0
260 -81 565 -181z m4206 -439 c434 -598 461 -636 448 -628 -8 5 -120 42 -734
240 -85 27 -243 78 -350 113 -107 35 -289 94 -405 131 -115 37 -213 70 -217
73 -8 7 841 623 853 619 5 -2 187 -248 405 -548z m-1171 -403 c61 -19 234 -76
385 -125 151 -50 365 -119 475 -155 961 -313 1060 -347 1073 -367 8 -14 12
-70 12 -182 l0 -162 -106 -325 c-58 -179 -131 -405 -162 -501 -30 -96 -59
-178 -62 -183 -3 -4 -168 183 -366 415 -198 233 -555 653 -794 933 -239 281
-470 553 -514 604 -45 52 -74 92 -66 89 8 -3 65 -21 125 -41z m-845 -538 c-44
-305 -87 -599 -95 -654 -16 -108 -140 -959 -155 -1065 -5 -36 -32 -220 -59
-410 -28 -190 -80 -547 -115 -795 -36 -247 -68 -464 -71 -482 -5 -30 -11 -33
-88 -58 -45 -14 -247 -80 -448 -146 -202 -65 -370 -119 -375 -118 -5 0 -352
472 -771 1049 l-761 1049 736 535 c406 294 1084 786 1507 1094 424 307 771
558 772 557 2 -1 -33 -251 -77 -556z m1356 -620 c538 -634 983 -1159 987
-1169 6 -12 -28 -130 -108 -376 -64 -197 -122 -375 -129 -394 -13 -33 -19 -36
-132 -73 -147 -47 -448 -145 -744 -242 -124 -40 -407 -132 -630 -205 -223 -72
-492 -160 -599 -195 -107 -36 -196 -64 -197 -62 -1 1 13 106 32 232 46 316
250 1718 284 1955 12 81 127 873 181 1240 22 151 45 312 51 358 6 45 14 82 18
82 3 0 447 -518 986 -1151z m-5085 -399 c133 -184 278 -383 320 -442 l78 -107
-324 -235 c-178 -130 -326 -236 -329 -236 -3 0 -6 309 -6 687 0 405 4 683 9
678 5 -6 118 -161 252 -345z m6519 -612 l-1 -233 -30 35 c-16 19 -41 49 -55
67 l-25 31 53 166 c28 91 54 166 55 166 2 0 3 -105 3 -232z m-5220 -1178 c401
-553 730 -1008 730 -1011 0 -4 -120 -46 -267 -93 -148 -48 -359 -117 -470
-154 -168 -54 -208 -64 -230 -56 -21 7 -183 223 -660 879 -348 478 -630 871
-627 874 20 21 781 570 787 568 4 -1 336 -454 737 -1007z m5114 626 c58 -69
106 -133 106 -144 0 -10 -8 -26 -17 -34 -19 -17 -324 -120 -332 -113 -4 5 127
415 134 415 2 0 51 -56 109 -124z m-320 -743 c-59 -81 -113 -154 -120 -162 -8
-8 8 49 33 127 l48 142 70 24 c38 13 71 22 73 20 2 -1 -45 -69 -104 -151z
m-448 -219 c-35 -110 -102 -315 -149 -458 l-84 -258 -92 -127 -92 -127 -642
-209 c-353 -115 -779 -253 -946 -307 -167 -55 -305 -97 -307 -96 -1 2 31 233
71 513 41 281 75 517 75 525 1 37 -62 15 1685 581 187 61 385 125 440 143 55
18 101 30 103 26 2 -5 -26 -97 -62 -206z m-2505 -904 c-22 -151 -52 -358 -66
-460 -15 -102 -28 -191 -31 -199 -2 -7 -126 154 -275 359 -149 204 -269 373
-267 375 2 1 154 52 338 112 204 66 336 105 338 98 1 -6 -15 -134 -37 -285z
m-731 -290 c106 -146 197 -271 202 -277 13 -16 42 -25 -564 172 -268 87 -485
161 -482 164 9 9 628 210 640 208 7 -1 98 -121 204 -267z"/>
</g>
</svg>
