<svg width="1440" height="7214" viewBox="0 0 1440 7214" fill="none" xmlns="http://www.w3.org/2000/svg">
<g clip-path="url(#clip0_21_793)">
<rect width="1440" height="7214" fill="#0D0B0C"/>
<mask id="mask0_21_793" style="mask-type:alpha" maskUnits="userSpaceOnUse" x="1051" y="1144" width="487" height="724">
<rect x="1538" y="1868" width="487" height="724" transform="rotate(-180 1538 1868)" fill="#C4C4C4"/>
</mask>
<g mask="url(#mask0_21_793)">
<g filter="url(#filter0_b_21_793)">
<path d="M1285.73 1866.38C1283.14 1866.4 1281.28 1866.41 1279.82 1866.32C1278.38 1866.22 1277.44 1866.02 1276.67 1865.67C1274.83 1864.84 1273.36 1863.37 1272.51 1861.54C1272.16 1860.78 1271.95 1859.84 1271.84 1858.4C1271.73 1856.93 1271.73 1855.08 1271.73 1852.49L1271.73 1469.66C1271.73 1467.07 1271.73 1465.22 1271.84 1463.75C1271.95 1462.31 1272.16 1461.37 1272.51 1460.6C1273.36 1458.75 1274.83 1457.27 1276.67 1456.4C1277.44 1456.04 1278.38 1455.83 1279.82 1455.71C1281.28 1455.59 1283.14 1455.57 1285.73 1455.55L1814.5 1451.45C1817.09 1451.43 1818.94 1451.41 1820.41 1451.51C1821.85 1451.61 1822.79 1451.81 1823.56 1452.16C1825.4 1452.99 1826.87 1454.45 1827.72 1456.28C1828.07 1457.05 1828.28 1457.98 1828.39 1459.43C1828.5 1460.89 1828.5 1462.75 1828.5 1465.34L1828.5 1848.16C1828.5 1850.75 1828.5 1852.61 1828.39 1854.07C1828.28 1855.52 1828.07 1856.46 1827.72 1857.23L1829.08 1857.85L1827.72 1857.23C1826.87 1859.07 1825.4 1860.56 1823.56 1861.42C1822.79 1861.78 1821.85 1862 1820.41 1862.12C1818.94 1862.24 1817.09 1862.25 1814.5 1862.27L1285.73 1866.38Z" stroke="url(#paint0_linear_21_793)" stroke-opacity="0.1" stroke-width="3"/>
</g>
<g filter="url(#filter1_b_21_793)">
<path d="M1220.22 1767.26C1217.63 1767.28 1215.77 1767.29 1214.31 1767.19C1212.86 1767.09 1211.93 1766.89 1211.16 1766.54C1209.32 1765.71 1207.85 1764.25 1207 1762.42C1206.65 1761.65 1206.44 1760.72 1206.33 1759.27C1206.22 1757.81 1206.22 1755.95 1206.22 1753.36L1206.22 1370.54C1206.22 1367.95 1206.22 1366.09 1206.33 1364.63C1206.44 1363.18 1206.65 1362.24 1207 1361.47C1207.85 1359.63 1209.32 1358.14 1211.16 1357.28C1211.93 1356.92 1212.86 1356.7 1214.31 1356.58C1215.77 1356.46 1217.63 1356.45 1220.22 1356.43L1748.99 1352.32C1751.58 1352.3 1753.43 1352.29 1754.9 1352.39C1756.34 1352.48 1757.28 1352.68 1758.05 1353.03C1759.89 1353.86 1761.36 1355.33 1762.21 1357.16C1762.56 1357.92 1762.77 1358.86 1762.88 1360.31C1762.99 1361.77 1762.99 1363.63 1762.99 1366.21L1762.99 1749.04C1762.99 1751.63 1762.99 1753.49 1762.88 1754.95C1762.77 1756.4 1762.56 1757.34 1762.21 1758.1L1763.57 1758.72L1762.21 1758.1C1761.36 1759.95 1759.89 1761.44 1758.05 1762.3C1757.28 1762.66 1756.34 1762.87 1754.9 1762.99C1753.43 1763.11 1751.58 1763.13 1748.99 1763.15L1220.22 1767.26Z" stroke="url(#paint1_linear_21_793)" stroke-opacity="0.1" stroke-width="3"/>
</g>
<g filter="url(#filter2_b_21_793)">
<path d="M1155.27 1668.07C1152.69 1668.09 1150.83 1668.11 1149.37 1668.01C1147.92 1667.91 1146.98 1667.71 1146.22 1667.36C1144.38 1666.53 1142.9 1665.07 1142.06 1663.23C1141.7 1662.47 1141.49 1661.53 1141.39 1660.09C1141.28 1658.63 1141.28 1656.77 1141.28 1654.18L1141.28 1271.35C1141.28 1268.77 1141.28 1266.91 1141.39 1265.45C1141.49 1264 1141.7 1263.06 1142.06 1262.29C1142.9 1260.45 1144.38 1258.96 1146.22 1258.1C1146.98 1257.74 1147.92 1257.52 1149.37 1257.4C1150.83 1257.28 1152.69 1257.27 1155.27 1257.25L1684.04 1253.14C1686.63 1253.12 1688.49 1253.11 1689.95 1253.2C1691.4 1253.3 1692.34 1253.5 1693.1 1253.85C1694.94 1254.68 1696.42 1256.15 1697.26 1257.98C1697.62 1258.74 1697.83 1259.68 1697.93 1261.12C1698.04 1262.59 1698.04 1264.44 1698.04 1267.03L1698.04 1649.86C1698.04 1652.45 1698.04 1654.3 1697.93 1655.77C1697.83 1657.21 1697.62 1658.15 1697.26 1658.92L1698.63 1659.54L1697.26 1658.92C1696.42 1660.77 1694.94 1662.25 1693.1 1663.12C1692.34 1663.47 1691.4 1663.69 1689.95 1663.81C1688.49 1663.93 1686.63 1663.95 1684.04 1663.97L1155.27 1668.07Z" stroke="url(#paint2_linear_21_793)" stroke-opacity="0.1" stroke-width="3"/>
</g>
<g filter="url(#filter3_b_21_793)">
<path d="M1077.34 1603.55C1074.75 1603.57 1072.9 1603.58 1071.43 1603.48C1069.99 1603.38 1069.05 1603.18 1068.28 1602.84C1066.45 1602 1064.97 1600.54 1064.12 1598.71C1063.77 1597.94 1063.56 1597.01 1063.45 1595.56C1063.34 1594.1 1063.34 1592.24 1063.34 1589.65L1063.34 1206.83C1063.34 1204.24 1063.34 1202.38 1063.45 1200.92C1063.56 1199.47 1063.77 1198.53 1064.12 1197.76C1064.97 1195.92 1066.45 1194.43 1068.28 1193.57C1069.05 1193.21 1069.99 1192.99 1071.43 1192.87C1072.9 1192.75 1074.75 1192.74 1077.34 1192.72L1606.11 1188.61C1608.7 1188.59 1610.56 1188.58 1612.02 1188.68C1613.47 1188.77 1614.4 1188.98 1615.17 1189.32C1617.01 1190.16 1618.48 1191.62 1619.33 1193.45C1619.68 1194.21 1619.89 1195.15 1620 1196.6C1620.11 1198.06 1620.11 1199.92 1620.11 1202.5L1620.11 1585.33C1620.11 1587.92 1620.11 1589.78 1620 1591.24C1619.89 1592.69 1619.68 1593.63 1619.33 1594.4L1620.69 1595.01L1619.33 1594.4C1618.48 1596.24 1617.01 1597.73 1615.17 1598.59C1614.4 1598.95 1613.47 1599.16 1612.02 1599.28C1610.56 1599.4 1608.7 1599.42 1606.11 1599.44L1077.34 1603.55Z" stroke="url(#paint3_linear_21_793)" stroke-opacity="0.1" stroke-width="3"/>
</g>
</g>
<g filter="url(#filter4_f_21_793)">
<rect x="835" y="2016.16" width="496.177" height="511.766" transform="rotate(-0.249547 835 2016.16)" fill="#9651FE" fill-opacity="0.22"/>
</g>
<mask id="mask1_21_793" style="mask-type:alpha" maskUnits="userSpaceOnUse" x="921" y="6516" width="487" height="724">
<rect x="1408" y="7240" width="487" height="724" transform="rotate(-180 1408 7240)" fill="#C4C4C4"/>
</mask>
<g mask="url(#mask1_21_793)">
<g filter="url(#filter5_b_21_793)">
<path d="M1145.89 7238.38C1143.3 7238.4 1141.44 7238.41 1139.98 7238.31C1138.53 7238.22 1137.59 7238.02 1136.83 7237.67C1134.99 7236.84 1133.52 7235.37 1132.67 7233.54C1132.32 7232.78 1132.11 7231.84 1132 7230.39C1131.89 7228.93 1131.89 7227.08 1131.89 7224.49L1131.89 6841.66C1131.89 6839.07 1131.89 6837.22 1132 6835.75C1132.11 6834.3 1132.32 6833.36 1132.67 6832.6C1133.52 6830.75 1134.99 6829.27 1136.83 6828.4C1137.59 6828.04 1138.53 6827.83 1139.98 6827.71C1141.44 6827.59 1143.3 6827.57 1145.89 6827.55L1674.66 6823.45C1677.24 6823.43 1679.1 6823.41 1680.56 6823.51C1682.01 6823.61 1682.95 6823.81 1683.72 6824.16C1685.55 6824.99 1687.03 6826.45 1687.88 6828.28C1688.23 6829.05 1688.44 6829.98 1688.55 6831.43C1688.66 6832.89 1688.66 6834.75 1688.66 6837.34L1688.66 7220.16C1688.66 7222.75 1688.66 7224.61 1688.55 7226.07C1688.44 7227.52 1688.23 7228.46 1687.88 7229.23L1689.24 7229.85L1687.88 7229.23C1687.03 7231.07 1685.55 7232.56 1683.72 7233.42C1682.95 7233.78 1682.01 7234 1680.56 7234.12C1679.1 7234.24 1677.24 7234.25 1674.66 7234.27L1145.89 7238.38Z" stroke="url(#paint4_linear_21_793)" stroke-opacity="0.1" stroke-width="3"/>
</g>
<g filter="url(#filter6_b_21_793)">
<path d="M1080.38 7139.26C1077.79 7139.28 1075.93 7139.29 1074.47 7139.19C1073.02 7139.09 1072.08 7138.89 1071.32 7138.54C1069.48 7137.71 1068 7136.25 1067.16 7134.42C1066.8 7133.65 1066.6 7132.72 1066.49 7131.27C1066.38 7129.81 1066.38 7127.95 1066.38 7125.36L1066.38 6742.54C1066.38 6739.95 1066.38 6738.09 1066.49 6736.63C1066.6 6735.18 1066.8 6734.24 1067.16 6733.47C1068 6731.63 1069.48 6730.14 1071.32 6729.28C1072.08 6728.92 1073.02 6728.7 1074.47 6728.58C1075.93 6728.46 1077.79 6728.45 1080.38 6728.43L1609.15 6724.32C1611.73 6724.3 1613.59 6724.29 1615.05 6724.39C1616.5 6724.48 1617.44 6724.68 1618.2 6725.03C1620.04 6725.86 1621.52 6727.33 1622.36 6729.16C1622.72 6729.92 1622.93 6730.86 1623.04 6732.31C1623.14 6733.77 1623.15 6735.63 1623.15 6738.21L1623.15 7121.04C1623.15 7123.63 1623.14 7125.48 1623.04 7126.95C1622.93 7128.4 1622.72 7129.34 1622.36 7130.1L1623.73 7130.72L1622.36 7130.1C1621.52 7131.95 1620.04 7133.44 1618.2 7134.3C1617.44 7134.66 1616.5 7134.87 1615.05 7134.99C1613.59 7135.11 1611.73 7135.13 1609.15 7135.15L1080.38 7139.26Z" stroke="url(#paint5_linear_21_793)" stroke-opacity="0.1" stroke-width="3"/>
</g>
<g filter="url(#filter7_b_21_793)">
<path d="M1015.43 7040.07C1012.84 7040.09 1010.99 7040.11 1009.52 7040.01C1008.08 7039.91 1007.14 7039.71 1006.37 7039.36C1004.54 7038.53 1003.06 7037.07 1002.21 7035.23C1001.86 7034.47 1001.65 7033.53 1001.54 7032.09C1001.43 7030.63 1001.43 7028.77 1001.43 7026.18L1001.43 6643.35C1001.43 6640.77 1001.43 6638.91 1001.54 6637.45C1001.65 6636 1001.86 6635.06 1002.21 6634.29C1003.06 6632.45 1004.54 6630.96 1006.37 6630.1C1007.14 6629.74 1008.08 6629.52 1009.52 6629.4C1010.99 6629.28 1012.84 6629.27 1015.43 6629.25L1544.2 6625.14C1546.79 6625.12 1548.65 6625.11 1550.11 6625.2C1551.56 6625.3 1552.49 6625.5 1553.26 6625.85C1555.1 6626.68 1556.57 6628.15 1557.42 6629.98C1557.77 6630.74 1557.98 6631.68 1558.09 6633.12C1558.2 6634.59 1558.2 6636.44 1558.2 6639.03L1558.2 7021.86C1558.2 7024.45 1558.2 7026.3 1558.09 7027.77C1557.98 7029.21 1557.77 7030.15 1557.42 7030.92L1558.78 7031.54L1557.42 7030.92C1556.57 7032.77 1555.1 7034.25 1553.26 7035.12C1552.49 7035.47 1551.56 7035.69 1550.11 7035.81C1548.65 7035.93 1546.79 7035.95 1544.2 7035.97L1015.43 7040.07Z" stroke="url(#paint6_linear_21_793)" stroke-opacity="0.1" stroke-width="3"/>
</g>
<g filter="url(#filter8_b_21_793)">
<path d="M937.499 6975.55C934.912 6975.57 933.054 6975.58 931.592 6975.48C930.145 6975.38 929.207 6975.18 928.441 6974.84C926.603 6974 925.128 6972.54 924.28 6970.71C923.927 6969.94 923.719 6969.01 923.61 6967.56C923.501 6966.1 923.5 6964.24 923.5 6961.65L923.5 6578.83C923.5 6576.24 923.501 6574.38 923.61 6572.92C923.719 6571.47 923.928 6570.53 924.281 6569.76C925.128 6567.92 926.603 6566.43 928.441 6565.57C929.207 6565.21 930.145 6564.99 931.592 6564.87C933.054 6564.75 934.912 6564.74 937.499 6564.72L1466.27 6560.61C1468.86 6560.59 1470.71 6560.58 1472.18 6560.68C1473.62 6560.77 1474.56 6560.98 1475.33 6561.32C1477.17 6562.16 1478.64 6563.62 1479.49 6565.45C1479.84 6566.21 1480.05 6567.15 1480.16 6568.6C1480.27 6570.06 1480.27 6571.92 1480.27 6574.5L1480.27 6957.33C1480.27 6959.92 1480.27 6961.78 1480.16 6963.24C1480.05 6964.69 1479.84 6965.63 1479.49 6966.39L1480.85 6967.01L1479.49 6966.39C1478.64 6968.24 1477.17 6969.73 1475.33 6970.59C1474.56 6970.95 1473.62 6971.16 1472.18 6971.28C1470.71 6971.4 1468.86 6971.42 1466.27 6971.44L937.499 6975.55Z" stroke="url(#paint7_linear_21_793)" stroke-opacity="0.1" stroke-width="3"/>
</g>
</g>
<g filter="url(#filter9_f_21_793)">
<rect x="25" y="57.1611" width="496.177" height="511.766" transform="rotate(-0.249547 25 57.1611)" fill="#9651FE" fill-opacity="0.22"/>
</g>
<mask id="mask2_21_793" style="mask-type:alpha" maskUnits="userSpaceOnUse" x="797" y="3935" width="629" height="936">
<rect x="1426" y="4870.1" width="629" height="935.104" transform="rotate(-180 1426 4870.1)" fill="#C4C4C4"/>
</mask>
<g mask="url(#mask2_21_793)">
<g filter="url(#filter10_b_21_793)">
<path d="M1095.65 4868.48C1093.07 4868.5 1091.21 4868.52 1089.75 4868.42C1088.3 4868.32 1087.36 4868.12 1086.6 4867.77C1084.76 4866.94 1083.28 4865.48 1082.43 4863.65C1082.08 4862.88 1081.87 4861.95 1081.76 4860.5C1081.65 4859.04 1081.65 4857.18 1081.65 4854.59L1081.65 4351.1C1081.65 4348.51 1081.66 4346.66 1081.76 4345.19C1081.87 4343.75 1082.08 4342.81 1082.43 4342.04C1083.28 4340.19 1084.76 4338.71 1086.6 4337.84L1085.97 4336.49L1086.6 4337.84C1087.36 4337.49 1088.3 4337.27 1089.75 4337.15C1091.21 4337.03 1093.07 4337.01 1095.65 4336.99L1787.64 4331.62C1790.23 4331.6 1792.09 4331.59 1793.55 4331.68C1795 4331.78 1795.93 4331.98 1796.7 4332.33C1798.54 4333.16 1800.01 4334.63 1800.86 4336.46C1801.21 4337.22 1801.42 4338.16 1801.53 4339.6C1801.64 4341.07 1801.64 4342.92 1801.64 4345.51L1801.64 4849C1801.64 4851.59 1801.64 4853.45 1801.53 4854.91C1801.42 4856.36 1801.21 4857.3 1800.86 4858.07L1802.22 4858.68L1800.86 4858.07C1800.01 4859.91 1798.54 4861.4 1796.7 4862.26C1795.93 4862.62 1795 4862.83 1793.55 4862.95C1792.09 4863.07 1790.23 4863.09 1787.64 4863.11L1095.65 4868.48Z" stroke="url(#paint8_linear_21_793)" stroke-opacity="0.1" stroke-width="3"/>
</g>
<g filter="url(#filter11_b_21_793)">
<path d="M1011.04 4740.46C1008.45 4740.48 1006.6 4740.49 1005.13 4740.39C1003.69 4740.3 1002.75 4740.09 1001.98 4739.75C1000.14 4738.91 998.669 4737.45 997.822 4735.62C997.469 4734.86 997.26 4733.92 997.152 4732.47C997.042 4731.01 997.041 4729.15 997.041 4726.57L997.041 4223.07C997.041 4220.49 997.042 4218.63 997.152 4217.17C997.26 4215.72 997.469 4214.78 997.822 4214.01C998.669 4212.17 1000.14 4210.68 1001.98 4209.82L1001.35 4208.46L1001.98 4209.82C1002.75 4209.46 1003.69 4209.24 1005.13 4209.12C1006.6 4209 1008.45 4208.99 1011.04 4208.97L1703.03 4203.59C1705.62 4203.57 1707.47 4203.56 1708.94 4203.66C1710.38 4203.75 1711.32 4203.96 1712.09 4204.3C1713.93 4205.14 1715.4 4206.6 1716.25 4208.43C1716.6 4209.19 1716.81 4210.13 1716.92 4211.58C1717.03 4213.04 1717.03 4214.9 1717.03 4217.48L1717.03 4720.97C1717.03 4723.56 1717.03 4725.42 1716.92 4726.88C1716.81 4728.33 1716.6 4729.27 1716.25 4730.04L1717.61 4730.66L1716.25 4730.04C1715.4 4731.88 1713.93 4733.37 1712.09 4734.23C1711.32 4734.59 1710.38 4734.81 1708.94 4734.93C1707.47 4735.05 1705.62 4735.06 1703.03 4735.08L1011.04 4740.46Z" stroke="url(#paint9_linear_21_793)" stroke-opacity="0.1" stroke-width="3"/>
</g>
<g filter="url(#filter12_b_21_793)">
<path d="M927.16 4612.36C924.573 4612.38 922.715 4612.39 921.253 4612.29C919.806 4612.19 918.868 4611.99 918.102 4611.65C916.264 4610.81 914.789 4609.35 913.941 4607.52C913.588 4606.75 913.38 4605.82 913.271 4604.37C913.162 4602.91 913.161 4601.05 913.161 4598.46L913.161 4094.97C913.161 4092.39 913.162 4090.53 913.271 4089.06C913.38 4087.62 913.589 4086.68 913.942 4085.91C914.789 4084.06 916.264 4082.58 918.102 4081.72L917.474 4080.36L918.102 4081.72C918.868 4081.36 919.806 4081.14 921.253 4081.02C922.715 4080.9 924.573 4080.88 927.16 4080.86L1619.15 4075.49C1621.74 4075.47 1623.59 4075.46 1625.06 4075.55C1626.5 4075.65 1627.44 4075.85 1628.21 4076.2C1630.04 4077.03 1631.52 4078.5 1632.37 4080.33C1632.72 4081.09 1632.93 4082.03 1633.04 4083.47C1633.15 4084.94 1633.15 4086.79 1633.15 4089.38L1633.15 4592.87C1633.15 4595.46 1633.15 4597.32 1633.04 4598.78C1632.93 4600.23 1632.72 4601.17 1632.37 4601.94L1633.73 4602.55L1632.37 4601.94C1631.52 4603.78 1630.04 4605.27 1628.21 4606.13C1627.44 4606.49 1626.5 4606.71 1625.06 4606.82C1623.59 4606.95 1621.74 4606.96 1619.15 4606.98L927.16 4612.36Z" stroke="url(#paint10_linear_21_793)" stroke-opacity="0.1" stroke-width="3"/>
</g>
<g filter="url(#filter13_b_21_793)">
<path d="M826.504 4529.01C823.917 4529.03 822.059 4529.05 820.597 4528.95C819.15 4528.85 818.211 4528.65 817.445 4528.3C815.608 4527.47 814.132 4526.01 813.285 4524.17C812.932 4523.41 812.723 4522.47 812.615 4521.03C812.505 4519.57 812.504 4517.71 812.504 4515.12L812.504 4011.63C812.504 4009.04 812.505 4007.19 812.615 4005.72C812.723 4004.27 812.932 4003.33 813.285 4002.57C814.132 4000.72 815.608 3999.23 817.446 3998.37L816.818 3997.02L817.446 3998.37C818.211 3998.01 819.15 3997.8 820.597 3997.68C822.059 3997.56 823.917 3997.54 826.504 3997.52L1518.49 3992.15C1521.08 3992.13 1522.94 3992.11 1524.4 3992.21C1525.85 3992.31 1526.78 3992.51 1527.55 3992.86C1529.39 3993.69 1530.86 3995.15 1531.71 3996.99C1532.06 3997.75 1532.27 3998.69 1532.38 4000.13C1532.49 4001.59 1532.49 4003.45 1532.49 4006.04L1532.49 4509.53C1532.49 4512.12 1532.49 4513.98 1532.38 4515.44C1532.27 4516.89 1532.06 4517.83 1531.71 4518.59L1533.07 4519.21L1531.71 4518.59C1530.86 4520.44 1529.39 4521.93 1527.55 4522.79C1526.78 4523.15 1525.85 4523.36 1524.4 4523.48C1522.94 4523.6 1521.08 4523.62 1518.49 4523.64L826.504 4529.01Z" stroke="url(#paint11_linear_21_793)" stroke-opacity="0.1" stroke-width="3"/>
</g>
</g>
<g filter="url(#filter14_f_21_793)">
<rect x="62" y="1177.86" width="655.777" height="511.766" transform="rotate(-0.249547 62 1177.86)" fill="#9651FE" fill-opacity="0.22"/>
</g>
<mask id="mask3_21_793" style="mask-type:alpha" maskUnits="userSpaceOnUse" x="0" y="974" width="487" height="724">
<rect y="974" width="487" height="724" fill="#C4C4C4"/>
</mask>
<g mask="url(#mask3_21_793)">
<g filter="url(#filter15_b_21_793)">
<path d="M252.27 975.62C254.857 975.6 256.715 975.587 258.177 975.685C259.624 975.782 260.563 975.984 261.328 976.331C263.166 977.164 264.642 978.627 265.489 980.459C265.842 981.222 266.05 982.159 266.159 983.605C266.269 985.066 266.27 986.924 266.27 989.511L266.27 1372.34C266.27 1374.93 266.269 1376.78 266.159 1378.25C266.05 1379.69 265.842 1380.63 265.489 1381.4C264.642 1383.25 263.166 1384.73 261.328 1385.6C260.563 1385.96 259.624 1386.17 258.177 1386.29C256.715 1386.41 254.857 1386.43 252.27 1386.45L-276.5 1390.55C-279.087 1390.57 -280.945 1390.59 -282.407 1390.49C-283.854 1390.39 -284.793 1390.19 -285.558 1389.84C-287.396 1389.01 -288.871 1387.55 -289.719 1385.72C-290.072 1384.95 -290.28 1384.02 -290.389 1382.57C-290.499 1381.11 -290.5 1379.25 -290.5 1376.66L-290.5 993.836C-290.5 991.248 -290.499 989.39 -290.389 987.927C-290.28 986.479 -290.072 985.539 -289.719 984.771L-291.081 984.153L-289.719 984.771C-288.871 982.926 -287.396 981.44 -285.558 980.578C-284.793 980.219 -283.854 980.003 -282.407 979.883C-280.945 979.762 -279.087 979.747 -276.5 979.727L252.27 975.62Z" stroke="url(#paint12_linear_21_793)" stroke-opacity="0.1" stroke-width="3"/>
</g>
<g filter="url(#filter16_b_21_793)">
<path d="M317.781 1074.74C320.368 1074.72 322.226 1074.71 323.689 1074.81C325.135 1074.91 326.074 1075.11 326.84 1075.46C328.677 1076.29 330.153 1077.75 331 1079.58C331.353 1080.35 331.562 1081.28 331.67 1082.73C331.78 1084.19 331.781 1086.05 331.781 1088.64L331.781 1471.46C331.781 1474.05 331.78 1475.91 331.67 1477.37C331.562 1478.82 331.353 1479.76 331 1480.53C330.153 1482.37 328.677 1483.86 326.84 1484.72C326.074 1485.08 325.135 1485.3 323.689 1485.42C322.226 1485.54 320.368 1485.55 317.781 1485.57L-210.989 1489.68C-213.576 1489.7 -215.434 1489.71 -216.896 1489.61C-218.343 1489.52 -219.281 1489.32 -220.047 1488.97C-221.885 1488.14 -223.36 1486.67 -224.208 1484.84C-224.561 1484.08 -224.769 1483.14 -224.878 1481.69C-224.987 1480.23 -224.988 1478.37 -224.988 1475.79L-224.988 1092.96C-224.988 1090.37 -224.987 1088.51 -224.878 1087.05C-224.769 1085.6 -224.561 1084.66 -224.208 1083.9L-225.57 1083.28L-224.208 1083.9C-223.36 1082.05 -221.885 1080.56 -220.047 1079.7C-219.281 1079.34 -218.343 1079.13 -216.896 1079.01C-215.434 1078.89 -213.576 1078.87 -210.989 1078.85L317.781 1074.74Z" stroke="url(#paint13_linear_21_793)" stroke-opacity="0.1" stroke-width="3"/>
</g>
<g filter="url(#filter17_b_21_793)">
<path d="M382.725 1173.93C385.313 1173.91 387.17 1173.89 388.633 1173.99C390.079 1174.09 391.018 1174.29 391.784 1174.64C393.622 1175.47 395.097 1176.93 395.944 1178.77C396.297 1179.53 396.506 1180.47 396.614 1181.91C396.724 1183.37 396.725 1185.23 396.725 1187.82L396.725 1570.65C396.725 1573.23 396.724 1575.09 396.614 1576.55C396.506 1578 396.297 1578.94 395.944 1579.71C395.097 1581.55 393.622 1583.04 391.784 1583.9C391.018 1584.26 390.079 1584.48 388.633 1584.6C387.17 1584.72 385.313 1584.73 382.725 1584.75L-146.045 1588.86C-148.632 1588.88 -150.49 1588.89 -151.952 1588.8C-153.399 1588.7 -154.337 1588.5 -155.103 1588.15C-156.941 1587.32 -158.416 1585.85 -159.263 1584.02C-159.616 1583.26 -159.825 1582.32 -159.934 1580.88C-160.043 1579.41 -160.044 1577.56 -160.044 1574.97L-160.044 1192.14C-160.044 1189.55 -160.043 1187.7 -159.934 1186.23C-159.825 1184.79 -159.616 1183.85 -159.263 1183.08L-160.626 1182.46L-159.263 1183.08C-158.416 1181.23 -156.941 1179.75 -155.103 1178.88C-154.337 1178.53 -153.399 1178.31 -151.952 1178.19C-150.49 1178.07 -148.632 1178.05 -146.045 1178.03L382.725 1173.93Z" stroke="url(#paint14_linear_21_793)" stroke-opacity="0.1" stroke-width="3"/>
</g>
<g filter="url(#filter18_b_21_793)">
<path d="M460.658 1238.45C463.245 1238.43 465.103 1238.42 466.565 1238.52C468.012 1238.62 468.951 1238.82 469.716 1239.16C471.554 1240 473.03 1241.46 473.877 1243.29C474.23 1244.06 474.439 1244.99 474.547 1246.44C474.657 1247.9 474.658 1249.76 474.658 1252.35L474.658 1635.17C474.658 1637.76 474.657 1639.62 474.547 1641.08C474.439 1642.53 474.23 1643.47 473.877 1644.24C473.03 1646.08 471.554 1647.57 469.716 1648.43C468.951 1648.79 468.012 1649.01 466.565 1649.13C465.103 1649.25 463.245 1649.26 460.658 1649.28L-68.1119 1653.39C-70.6991 1653.41 -72.5569 1653.42 -74.0192 1653.32C-75.4661 1653.23 -76.4045 1653.02 -77.1702 1652.68C-79.0082 1651.84 -80.4834 1650.38 -81.3307 1648.55C-81.6837 1647.79 -81.8924 1646.85 -82.0009 1645.4C-82.1105 1643.94 -82.1115 1642.08 -82.1115 1639.5L-82.1115 1256.67C-82.1115 1254.08 -82.1105 1252.22 -82.0009 1250.76C-81.8924 1249.31 -81.6837 1248.37 -81.3308 1247.6L-82.6929 1246.99L-81.3307 1247.6C-80.4834 1245.76 -79.0082 1244.27 -77.1702 1243.41C-76.4045 1243.05 -75.4661 1242.84 -74.0192 1242.72C-72.5569 1242.6 -70.6992 1242.58 -68.1119 1242.56L460.658 1238.45Z" stroke="url(#paint15_linear_21_793)" stroke-opacity="0.1" stroke-width="3"/>
</g>
</g>
<circle cx="1186" cy="283" r="386" fill="url(#paint16_linear_21_793)"/>
<g filter="url(#filter19_f_21_793)">
<rect x="228.576" y="2866.48" width="1027.46" height="801.826" transform="rotate(-0.249547 228.576 2866.48)" fill="#9651FE" fill-opacity="0.22"/>
</g>
<g filter="url(#filter20_f_21_793)">
<rect x="64" y="5280.86" width="655.777" height="511.766" transform="rotate(-0.249547 64 5280.86)" fill="#9651FE" fill-opacity="0.22"/>
</g>
<g filter="url(#filter21_f_21_793)">
<rect x="52" y="21.856" width="655.777" height="511.766" transform="rotate(-0.249547 52 21.856)" fill="#9651FE" fill-opacity="0.22"/>
</g>
<g filter="url(#filter22_f_21_793)">
<rect x="17" y="1134.38" width="316.49" height="511.766" transform="rotate(-0.249547 17 1134.38)" fill="#9651FE" fill-opacity="0.22"/>
</g>
<g filter="url(#filter23_f_21_793)">
<rect x="712.932" y="4450.48" width="729.863" height="527.461" transform="rotate(-0.249547 712.932 4450.48)" fill="#9651FE" fill-opacity="0.22"/>
</g>
<mask id="mask4_21_793" style="mask-type:alpha" maskUnits="userSpaceOnUse" x="952" y="3007" width="488" height="724">
<rect x="1439.58" y="3731" width="487" height="724" transform="rotate(-180 1439.58 3731)" fill="#C4C4C4"/>
</mask>
<g mask="url(#mask4_21_793)">
<g filter="url(#filter24_b_21_793)">
<path d="M1187.31 3729.38C1184.72 3729.4 1182.86 3729.41 1181.4 3729.32C1179.95 3729.22 1179.01 3729.02 1178.25 3728.67C1176.41 3727.84 1174.93 3726.37 1174.09 3724.54C1173.73 3723.78 1173.53 3722.84 1173.42 3721.4C1173.31 3719.93 1173.31 3718.08 1173.31 3715.49L1173.31 3332.66C1173.31 3330.07 1173.31 3328.22 1173.42 3326.75C1173.53 3325.31 1173.73 3324.37 1174.09 3323.6C1174.93 3321.75 1176.41 3320.27 1178.25 3319.4C1179.01 3319.04 1179.95 3318.83 1181.4 3318.71C1182.86 3318.59 1184.72 3318.57 1187.31 3318.55L1716.08 3314.45C1718.66 3314.43 1720.52 3314.41 1721.98 3314.51C1723.43 3314.61 1724.37 3314.81 1725.13 3315.16C1726.97 3315.99 1728.45 3317.45 1729.29 3319.28C1729.65 3320.05 1729.86 3320.98 1729.96 3322.43C1730.07 3323.89 1730.08 3325.75 1730.08 3328.34L1730.08 3711.16C1730.08 3713.75 1730.07 3715.61 1729.96 3717.07C1729.86 3718.52 1729.65 3719.46 1729.29 3720.23L1730.66 3720.85L1729.29 3720.23C1728.45 3722.07 1726.97 3723.56 1725.13 3724.42C1724.37 3724.78 1723.43 3725 1721.98 3725.12C1720.52 3725.24 1718.66 3725.25 1716.08 3725.27L1187.31 3729.38Z" stroke="url(#paint17_linear_21_793)" stroke-opacity="0.1" stroke-width="3"/>
</g>
<g filter="url(#filter25_b_21_793)">
<path d="M1121.79 3630.26C1119.21 3630.28 1117.35 3630.29 1115.89 3630.19C1114.44 3630.09 1113.5 3629.89 1112.74 3629.54C1110.9 3628.71 1109.42 3627.25 1108.58 3625.42C1108.22 3624.65 1108.01 3623.72 1107.91 3622.27C1107.8 3620.81 1107.8 3618.95 1107.8 3616.36L1107.8 3233.54C1107.8 3230.95 1107.8 3229.09 1107.91 3227.63C1108.01 3226.18 1108.22 3225.24 1108.58 3224.47C1109.42 3222.63 1110.9 3221.14 1112.74 3220.28C1113.5 3219.92 1114.44 3219.7 1115.89 3219.58C1117.35 3219.46 1119.21 3219.45 1121.79 3219.43L1650.56 3215.32C1653.15 3215.3 1655.01 3215.29 1656.47 3215.39C1657.92 3215.48 1658.86 3215.68 1659.62 3216.03C1661.46 3216.86 1662.94 3218.33 1663.78 3220.16C1664.14 3220.92 1664.35 3221.86 1664.45 3223.31C1664.56 3224.77 1664.56 3226.63 1664.56 3229.21L1664.56 3612.04C1664.56 3614.63 1664.56 3616.49 1664.45 3617.95C1664.35 3619.4 1664.14 3620.34 1663.78 3621.1L1665.15 3621.72L1663.78 3621.1C1662.94 3622.95 1661.46 3624.44 1659.62 3625.3C1658.86 3625.66 1657.92 3625.87 1656.47 3625.99C1655.01 3626.11 1653.15 3626.13 1650.56 3626.15L1121.79 3630.26Z" stroke="url(#paint18_linear_21_793)" stroke-opacity="0.1" stroke-width="3"/>
</g>
<g filter="url(#filter26_b_21_793)">
<path d="M1056.85 3531.07C1054.26 3531.09 1052.41 3531.11 1050.94 3531.01C1049.5 3530.91 1048.56 3530.71 1047.79 3530.36C1045.95 3529.53 1044.48 3528.07 1043.63 3526.23C1043.28 3525.47 1043.07 3524.53 1042.96 3523.09C1042.85 3521.63 1042.85 3519.77 1042.85 3517.18L1042.85 3134.35C1042.85 3131.77 1042.85 3129.91 1042.96 3128.45C1043.07 3127 1043.28 3126.06 1043.63 3125.29C1044.48 3123.45 1045.95 3121.96 1047.79 3121.1C1048.56 3120.74 1049.5 3120.52 1050.94 3120.4C1052.41 3120.28 1054.26 3120.27 1056.85 3120.25L1585.62 3116.14C1588.21 3116.12 1590.07 3116.11 1591.53 3116.2C1592.98 3116.3 1593.91 3116.5 1594.68 3116.85C1596.52 3117.68 1597.99 3119.15 1598.84 3120.98C1599.19 3121.74 1599.4 3122.68 1599.51 3124.12C1599.62 3125.59 1599.62 3127.44 1599.62 3130.03L1599.62 3512.86C1599.62 3515.45 1599.62 3517.3 1599.51 3518.77C1599.4 3520.21 1599.19 3521.15 1598.84 3521.92L1600.2 3522.54L1598.84 3521.92C1597.99 3523.77 1596.52 3525.25 1594.68 3526.12C1593.91 3526.47 1592.97 3526.69 1591.53 3526.81C1590.07 3526.93 1588.21 3526.95 1585.62 3526.97L1056.85 3531.07Z" stroke="url(#paint19_linear_21_793)" stroke-opacity="0.1" stroke-width="3"/>
</g>
<g filter="url(#filter27_b_21_793)">
<path d="M978.918 3466.55C976.331 3466.57 974.473 3466.58 973.011 3466.48C971.564 3466.38 970.625 3466.18 969.86 3465.84C968.022 3465 966.546 3463.54 965.699 3461.71C965.346 3460.94 965.138 3460.01 965.029 3458.56C964.919 3457.1 964.918 3455.24 964.918 3452.65L964.918 3069.83C964.918 3067.24 964.919 3065.38 965.029 3063.92C965.138 3062.47 965.346 3061.53 965.699 3060.76C966.547 3058.92 968.022 3057.43 969.86 3056.57C970.625 3056.21 971.564 3055.99 973.011 3055.88C974.473 3055.75 976.331 3055.74 978.918 3055.72L1507.69 3051.61C1510.28 3051.59 1512.13 3051.58 1513.6 3051.68C1515.04 3051.77 1515.98 3051.98 1516.75 3052.32C1518.58 3053.16 1520.06 3054.62 1520.91 3056.45C1521.26 3057.21 1521.47 3058.15 1521.58 3059.6C1521.69 3061.06 1521.69 3062.92 1521.69 3065.5L1521.69 3448.33C1521.69 3450.92 1521.69 3452.78 1521.58 3454.24C1521.47 3455.69 1521.26 3456.63 1520.91 3457.4L1522.27 3458.01L1520.91 3457.4C1520.06 3459.24 1518.58 3460.73 1516.75 3461.59C1515.98 3461.95 1515.04 3462.16 1513.6 3462.28C1512.13 3462.4 1510.28 3462.42 1507.69 3462.44L978.918 3466.55Z" stroke="url(#paint20_linear_21_793)" stroke-opacity="0.1" stroke-width="3"/>
</g>
</g>
<g filter="url(#filter28_f_21_793)">
<rect y="6441.86" width="655.777" height="511.766" transform="rotate(-0.249547 0 6441.86)" fill="#9651FE" fill-opacity="0.22"/>
</g>
<g filter="url(#filter29_f_21_793)">
<rect x="711" y="6379.86" width="655.777" height="511.766" transform="rotate(-0.249547 711 6379.86)" fill="#9651FE" fill-opacity="0.22"/>
</g>
<mask id="mask5_21_793" style="mask-type:alpha" maskUnits="userSpaceOnUse" x="-6" y="5254" width="487" height="724">
<rect x="-6" y="5254" width="487" height="724" fill="#C4C4C4"/>
</mask>
<g mask="url(#mask5_21_793)">
<g filter="url(#filter30_b_21_793)">
<path d="M256.113 5255.62C258.7 5255.6 260.558 5255.59 262.02 5255.69C263.467 5255.78 264.405 5255.98 265.171 5256.33C267.009 5257.16 268.484 5258.63 269.332 5260.46C269.685 5261.22 269.893 5262.16 270.002 5263.61C270.111 5265.07 270.112 5266.92 270.112 5269.51L270.112 5652.34C270.112 5654.93 270.111 5656.78 270.002 5658.25C269.893 5659.7 269.685 5660.64 269.332 5661.4C268.484 5663.25 267.009 5664.73 265.171 5665.6C264.405 5665.96 263.467 5666.17 262.02 5666.29C260.558 5666.41 258.7 5666.43 256.113 5666.45L-272.657 5670.55C-275.244 5670.57 -277.102 5670.59 -278.565 5670.49C-280.011 5670.39 -280.95 5670.19 -281.716 5669.84C-283.553 5669.01 -285.029 5667.55 -285.876 5665.72C-286.229 5664.95 -286.438 5664.02 -286.546 5662.57C-286.656 5661.11 -286.657 5659.25 -286.657 5656.66L-286.657 5273.84C-286.657 5271.25 -286.656 5269.39 -286.546 5267.93C-286.438 5266.48 -286.229 5265.54 -285.876 5264.77L-287.238 5264.15L-285.876 5264.77C-285.029 5262.93 -283.553 5261.44 -281.716 5260.58C-280.95 5260.22 -280.011 5260 -278.564 5259.88C-277.102 5259.76 -275.244 5259.75 -272.657 5259.73L256.113 5255.62Z" stroke="url(#paint21_linear_21_793)" stroke-opacity="0.1" stroke-width="3"/>
</g>
<g filter="url(#filter31_b_21_793)">
<path d="M321.624 5354.74C324.211 5354.72 326.069 5354.71 327.531 5354.81C328.978 5354.91 329.916 5355.11 330.682 5355.46C332.52 5356.29 333.995 5357.75 334.843 5359.58C335.196 5360.35 335.404 5361.28 335.513 5362.73C335.622 5364.19 335.623 5366.05 335.623 5368.64L335.623 5751.46C335.623 5754.05 335.622 5755.91 335.513 5757.37C335.404 5758.82 335.196 5759.76 334.843 5760.53C333.995 5762.37 332.52 5763.86 330.682 5764.72C329.916 5765.08 328.978 5765.3 327.531 5765.42C326.069 5765.54 324.211 5765.55 321.624 5765.57L-207.146 5769.68C-209.733 5769.7 -211.591 5769.71 -213.054 5769.61C-214.5 5769.52 -215.439 5769.32 -216.205 5768.97C-218.043 5768.14 -219.518 5766.67 -220.365 5764.84C-220.718 5764.08 -220.927 5763.14 -221.035 5761.69C-221.145 5760.23 -221.146 5758.37 -221.146 5755.79L-221.146 5372.96C-221.146 5370.37 -221.145 5368.52 -221.035 5367.05C-220.927 5365.6 -220.718 5364.66 -220.365 5363.9L-221.727 5363.28L-220.365 5363.9C-219.518 5362.05 -218.042 5360.56 -216.205 5359.7C-215.439 5359.34 -214.5 5359.13 -213.054 5359.01C-211.591 5358.89 -209.733 5358.87 -207.146 5358.85L321.624 5354.74Z" stroke="url(#paint22_linear_21_793)" stroke-opacity="0.1" stroke-width="3"/>
</g>
<g filter="url(#filter32_b_21_793)">
<path d="M386.568 5453.93C389.155 5453.91 391.013 5453.89 392.475 5453.99C393.922 5454.09 394.86 5454.29 395.626 5454.64C397.464 5455.47 398.939 5456.93 399.787 5458.77C400.14 5459.53 400.348 5460.47 400.457 5461.91C400.566 5463.37 400.567 5465.23 400.567 5467.82L400.567 5850.65C400.567 5853.23 400.566 5855.09 400.457 5856.55C400.348 5858 400.14 5858.94 399.787 5859.71C398.939 5861.55 397.464 5863.04 395.626 5863.9C394.86 5864.26 393.922 5864.48 392.475 5864.6C391.013 5864.72 389.155 5864.73 386.568 5864.75L-142.202 5868.86C-144.789 5868.88 -146.647 5868.89 -148.109 5868.8C-149.556 5868.7 -150.495 5868.5 -151.26 5868.15C-153.098 5867.32 -154.574 5865.85 -155.421 5864.02C-155.774 5863.26 -155.983 5862.32 -156.091 5860.88C-156.201 5859.41 -156.202 5857.56 -156.202 5854.97L-156.202 5472.14C-156.202 5469.56 -156.201 5467.7 -156.091 5466.23C-155.983 5464.79 -155.774 5463.85 -155.421 5463.08L-156.783 5462.46L-155.421 5463.08C-154.574 5461.23 -153.098 5459.75 -151.26 5458.88C-150.495 5458.53 -149.556 5458.31 -148.109 5458.19C-146.647 5458.07 -144.789 5458.05 -142.202 5458.03L386.568 5453.93Z" stroke="url(#paint23_linear_21_793)" stroke-opacity="0.1" stroke-width="3"/>
</g>
<g filter="url(#filter33_b_21_793)">
<path d="M464.501 5518.45C467.088 5518.43 468.946 5518.42 470.408 5518.52C471.855 5518.62 472.793 5518.82 473.559 5519.16C475.397 5520 476.872 5521.46 477.719 5523.29C478.072 5524.06 478.281 5524.99 478.39 5526.44C478.499 5527.9 478.5 5529.76 478.5 5532.35L478.5 5915.17C478.5 5917.76 478.499 5919.62 478.39 5921.08C478.281 5922.53 478.072 5923.47 477.719 5924.24C476.872 5926.08 475.397 5927.57 473.559 5928.43C472.793 5928.79 471.855 5929.01 470.408 5929.13C468.946 5929.25 467.088 5929.26 464.501 5929.28L-64.2693 5933.39C-66.8566 5933.41 -68.7144 5933.42 -70.1767 5933.32C-71.6235 5933.23 -72.562 5933.02 -73.3277 5932.68C-75.1657 5931.84 -76.6409 5930.38 -77.4882 5928.55C-77.8412 5927.79 -78.0499 5926.85 -78.1584 5925.4C-78.268 5923.94 -78.269 5922.08 -78.269 5919.5L-78.269 5536.67C-78.269 5534.08 -78.268 5532.22 -78.1584 5530.76C-78.0499 5529.31 -77.8412 5528.37 -77.4882 5527.61L-78.8504 5526.99L-77.4882 5527.61C-76.6409 5525.76 -75.1657 5524.27 -73.3277 5523.41C-72.562 5523.05 -71.6235 5522.84 -70.1767 5522.72C-68.7144 5522.6 -66.8566 5522.58 -64.2694 5522.56L464.501 5518.45Z" stroke="url(#paint24_linear_21_793)" stroke-opacity="0.1" stroke-width="3"/>
</g>
</g>
<g filter="url(#filter34_f_21_793)">
<circle cx="1465" cy="4294" r="317" fill="#9353FF"/>
</g>
</g>
<defs>
<filter id="filter0_b_21_793" x="1239.59" y="1419.3" width="621.041" height="479.235" filterUnits="userSpaceOnUse" color-interpolation-filters="sRGB">
<feFlood flood-opacity="0" result="BackgroundImageFix"/>
<feGaussianBlur in="BackgroundImage" stdDeviation="15.318"/>
<feComposite in2="SourceAlpha" operator="in" result="effect1_backgroundBlur_21_793"/>
<feBlend mode="normal" in="SourceGraphic" in2="effect1_backgroundBlur_21_793" result="shape"/>
</filter>
<filter id="filter1_b_21_793" x="1174.08" y="1320.17" width="621.041" height="479.235" filterUnits="userSpaceOnUse" color-interpolation-filters="sRGB">
<feFlood flood-opacity="0" result="BackgroundImageFix"/>
<feGaussianBlur in="BackgroundImage" stdDeviation="15.318"/>
<feComposite in2="SourceAlpha" operator="in" result="effect1_backgroundBlur_21_793"/>
<feBlend mode="normal" in="SourceGraphic" in2="effect1_backgroundBlur_21_793" result="shape"/>
</filter>
<filter id="filter2_b_21_793" x="1109.14" y="1220.99" width="621.041" height="479.235" filterUnits="userSpaceOnUse" color-interpolation-filters="sRGB">
<feFlood flood-opacity="0" result="BackgroundImageFix"/>
<feGaussianBlur in="BackgroundImage" stdDeviation="15.318"/>
<feComposite in2="SourceAlpha" operator="in" result="effect1_backgroundBlur_21_793"/>
<feBlend mode="normal" in="SourceGraphic" in2="effect1_backgroundBlur_21_793" result="shape"/>
</filter>
<filter id="filter3_b_21_793" x="1031.21" y="1156.46" width="621.041" height="479.235" filterUnits="userSpaceOnUse" color-interpolation-filters="sRGB">
<feFlood flood-opacity="0" result="BackgroundImageFix"/>
<feGaussianBlur in="BackgroundImage" stdDeviation="15.318"/>
<feComposite in2="SourceAlpha" operator="in" result="effect1_backgroundBlur_21_793"/>
<feBlend mode="normal" in="SourceGraphic" in2="effect1_backgroundBlur_21_793" result="shape"/>
</filter>
<filter id="filter4_f_21_793" x="385" y="1564" width="1398.4" height="1413.92" filterUnits="userSpaceOnUse" color-interpolation-filters="sRGB">
<feFlood flood-opacity="0" result="BackgroundImageFix"/>
<feBlend mode="normal" in="SourceGraphic" in2="BackgroundImageFix" result="shape"/>
<feGaussianBlur stdDeviation="225" result="effect1_foregroundBlur_21_793"/>
</filter>
<filter id="filter5_b_21_793" x="1099.75" y="6791.3" width="621.041" height="479.235" filterUnits="userSpaceOnUse" color-interpolation-filters="sRGB">
<feFlood flood-opacity="0" result="BackgroundImageFix"/>
<feGaussianBlur in="BackgroundImage" stdDeviation="15.318"/>
<feComposite in2="SourceAlpha" operator="in" result="effect1_backgroundBlur_21_793"/>
<feBlend mode="normal" in="SourceGraphic" in2="effect1_backgroundBlur_21_793" result="shape"/>
</filter>
<filter id="filter6_b_21_793" x="1034.24" y="6692.17" width="621.041" height="479.235" filterUnits="userSpaceOnUse" color-interpolation-filters="sRGB">
<feFlood flood-opacity="0" result="BackgroundImageFix"/>
<feGaussianBlur in="BackgroundImage" stdDeviation="15.318"/>
<feComposite in2="SourceAlpha" operator="in" result="effect1_backgroundBlur_21_793"/>
<feBlend mode="normal" in="SourceGraphic" in2="effect1_backgroundBlur_21_793" result="shape"/>
</filter>
<filter id="filter7_b_21_793" x="969.296" y="6592.99" width="621.041" height="479.235" filterUnits="userSpaceOnUse" color-interpolation-filters="sRGB">
<feFlood flood-opacity="0" result="BackgroundImageFix"/>
<feGaussianBlur in="BackgroundImage" stdDeviation="15.318"/>
<feComposite in2="SourceAlpha" operator="in" result="effect1_backgroundBlur_21_793"/>
<feBlend mode="normal" in="SourceGraphic" in2="effect1_backgroundBlur_21_793" result="shape"/>
</filter>
<filter id="filter8_b_21_793" x="891.364" y="6528.46" width="621.041" height="479.235" filterUnits="userSpaceOnUse" color-interpolation-filters="sRGB">
<feFlood flood-opacity="0" result="BackgroundImageFix"/>
<feGaussianBlur in="BackgroundImage" stdDeviation="15.318"/>
<feComposite in2="SourceAlpha" operator="in" result="effect1_backgroundBlur_21_793"/>
<feBlend mode="normal" in="SourceGraphic" in2="effect1_backgroundBlur_21_793" result="shape"/>
</filter>
<filter id="filter9_f_21_793" x="-425" y="-395" width="1398.4" height="1413.92" filterUnits="userSpaceOnUse" color-interpolation-filters="sRGB">
<feFlood flood-opacity="0" result="BackgroundImageFix"/>
<feBlend mode="normal" in="SourceGraphic" in2="BackgroundImageFix" result="shape"/>
<feGaussianBlur stdDeviation="225" result="effect1_foregroundBlur_21_793"/>
</filter>
<filter id="filter10_b_21_793" x="1049.52" y="4299.47" width="784.259" height="601.166" filterUnits="userSpaceOnUse" color-interpolation-filters="sRGB">
<feFlood flood-opacity="0" result="BackgroundImageFix"/>
<feGaussianBlur in="BackgroundImage" stdDeviation="15.318"/>
<feComposite in2="SourceAlpha" operator="in" result="effect1_backgroundBlur_21_793"/>
<feBlend mode="normal" in="SourceGraphic" in2="effect1_backgroundBlur_21_793" result="shape"/>
</filter>
<filter id="filter11_b_21_793" x="964.905" y="4171.44" width="784.259" height="601.166" filterUnits="userSpaceOnUse" color-interpolation-filters="sRGB">
<feFlood flood-opacity="0" result="BackgroundImageFix"/>
<feGaussianBlur in="BackgroundImage" stdDeviation="15.318"/>
<feComposite in2="SourceAlpha" operator="in" result="effect1_backgroundBlur_21_793"/>
<feBlend mode="normal" in="SourceGraphic" in2="effect1_backgroundBlur_21_793" result="shape"/>
</filter>
<filter id="filter12_b_21_793" x="881.025" y="4043.34" width="784.259" height="601.166" filterUnits="userSpaceOnUse" color-interpolation-filters="sRGB">
<feFlood flood-opacity="0" result="BackgroundImageFix"/>
<feGaussianBlur in="BackgroundImage" stdDeviation="15.318"/>
<feComposite in2="SourceAlpha" operator="in" result="effect1_backgroundBlur_21_793"/>
<feBlend mode="normal" in="SourceGraphic" in2="effect1_backgroundBlur_21_793" result="shape"/>
</filter>
<filter id="filter13_b_21_793" x="780.368" y="3960" width="784.259" height="601.166" filterUnits="userSpaceOnUse" color-interpolation-filters="sRGB">
<feFlood flood-opacity="0" result="BackgroundImageFix"/>
<feGaussianBlur in="BackgroundImage" stdDeviation="15.318"/>
<feComposite in2="SourceAlpha" operator="in" result="effect1_backgroundBlur_21_793"/>
<feBlend mode="normal" in="SourceGraphic" in2="effect1_backgroundBlur_21_793" result="shape"/>
</filter>
<filter id="filter14_f_21_793" x="-388" y="725" width="1558" height="1414.62" filterUnits="userSpaceOnUse" color-interpolation-filters="sRGB">
<feFlood flood-opacity="0" result="BackgroundImageFix"/>
<feBlend mode="normal" in="SourceGraphic" in2="BackgroundImageFix" result="shape"/>
<feGaussianBlur stdDeviation="225" result="effect1_foregroundBlur_21_793"/>
</filter>
<filter id="filter15_b_21_793" x="-322.636" y="943.47" width="621.041" height="479.235" filterUnits="userSpaceOnUse" color-interpolation-filters="sRGB">
<feFlood flood-opacity="0" result="BackgroundImageFix"/>
<feGaussianBlur in="BackgroundImage" stdDeviation="15.318"/>
<feComposite in2="SourceAlpha" operator="in" result="effect1_backgroundBlur_21_793"/>
<feBlend mode="normal" in="SourceGraphic" in2="effect1_backgroundBlur_21_793" result="shape"/>
</filter>
<filter id="filter16_b_21_793" x="-257.124" y="1042.59" width="621.041" height="479.235" filterUnits="userSpaceOnUse" color-interpolation-filters="sRGB">
<feFlood flood-opacity="0" result="BackgroundImageFix"/>
<feGaussianBlur in="BackgroundImage" stdDeviation="15.318"/>
<feComposite in2="SourceAlpha" operator="in" result="effect1_backgroundBlur_21_793"/>
<feBlend mode="normal" in="SourceGraphic" in2="effect1_backgroundBlur_21_793" result="shape"/>
</filter>
<filter id="filter17_b_21_793" x="-192.18" y="1141.78" width="621.041" height="479.235" filterUnits="userSpaceOnUse" color-interpolation-filters="sRGB">
<feFlood flood-opacity="0" result="BackgroundImageFix"/>
<feGaussianBlur in="BackgroundImage" stdDeviation="15.318"/>
<feComposite in2="SourceAlpha" operator="in" result="effect1_backgroundBlur_21_793"/>
<feBlend mode="normal" in="SourceGraphic" in2="effect1_backgroundBlur_21_793" result="shape"/>
</filter>
<filter id="filter18_b_21_793" x="-114.248" y="1206.3" width="621.041" height="479.235" filterUnits="userSpaceOnUse" color-interpolation-filters="sRGB">
<feFlood flood-opacity="0" result="BackgroundImageFix"/>
<feGaussianBlur in="BackgroundImage" stdDeviation="15.318"/>
<feComposite in2="SourceAlpha" operator="in" result="effect1_backgroundBlur_21_793"/>
<feBlend mode="normal" in="SourceGraphic" in2="effect1_backgroundBlur_21_793" result="shape"/>
</filter>
<filter id="filter19_f_21_793" x="-221.424" y="2412" width="1930.94" height="1706.29" filterUnits="userSpaceOnUse" color-interpolation-filters="sRGB">
<feFlood flood-opacity="0" result="BackgroundImageFix"/>
<feBlend mode="normal" in="SourceGraphic" in2="BackgroundImageFix" result="shape"/>
<feGaussianBlur stdDeviation="225" result="effect1_foregroundBlur_21_793"/>
</filter>
<filter id="filter20_f_21_793" x="-386" y="4828" width="1558" height="1414.62" filterUnits="userSpaceOnUse" color-interpolation-filters="sRGB">
<feFlood flood-opacity="0" result="BackgroundImageFix"/>
<feBlend mode="normal" in="SourceGraphic" in2="BackgroundImageFix" result="shape"/>
<feGaussianBlur stdDeviation="225" result="effect1_foregroundBlur_21_793"/>
</filter>
<filter id="filter21_f_21_793" x="-398" y="-431" width="1558" height="1414.62" filterUnits="userSpaceOnUse" color-interpolation-filters="sRGB">
<feFlood flood-opacity="0" result="BackgroundImageFix"/>
<feBlend mode="normal" in="SourceGraphic" in2="BackgroundImageFix" result="shape"/>
<feGaussianBlur stdDeviation="225" result="effect1_foregroundBlur_21_793"/>
</filter>
<filter id="filter22_f_21_793" x="-433" y="683" width="1218.72" height="1413.14" filterUnits="userSpaceOnUse" color-interpolation-filters="sRGB">
<feFlood flood-opacity="0" result="BackgroundImageFix"/>
<feBlend mode="normal" in="SourceGraphic" in2="BackgroundImageFix" result="shape"/>
<feGaussianBlur stdDeviation="225" result="effect1_foregroundBlur_21_793"/>
</filter>
<filter id="filter23_f_21_793" x="262.932" y="3997.31" width="1632.15" height="1430.63" filterUnits="userSpaceOnUse" color-interpolation-filters="sRGB">
<feFlood flood-opacity="0" result="BackgroundImageFix"/>
<feBlend mode="normal" in="SourceGraphic" in2="BackgroundImageFix" result="shape"/>
<feGaussianBlur stdDeviation="225" result="effect1_foregroundBlur_21_793"/>
</filter>
<filter id="filter24_b_21_793" x="1141.17" y="3282.3" width="621.041" height="479.235" filterUnits="userSpaceOnUse" color-interpolation-filters="sRGB">
<feFlood flood-opacity="0" result="BackgroundImageFix"/>
<feGaussianBlur in="BackgroundImage" stdDeviation="15.318"/>
<feComposite in2="SourceAlpha" operator="in" result="effect1_backgroundBlur_21_793"/>
<feBlend mode="normal" in="SourceGraphic" in2="effect1_backgroundBlur_21_793" result="shape"/>
</filter>
<filter id="filter25_b_21_793" x="1075.66" y="3183.17" width="621.041" height="479.235" filterUnits="userSpaceOnUse" color-interpolation-filters="sRGB">
<feFlood flood-opacity="0" result="BackgroundImageFix"/>
<feGaussianBlur in="BackgroundImage" stdDeviation="15.318"/>
<feComposite in2="SourceAlpha" operator="in" result="effect1_backgroundBlur_21_793"/>
<feBlend mode="normal" in="SourceGraphic" in2="effect1_backgroundBlur_21_793" result="shape"/>
</filter>
<filter id="filter26_b_21_793" x="1010.72" y="3083.99" width="621.041" height="479.235" filterUnits="userSpaceOnUse" color-interpolation-filters="sRGB">
<feFlood flood-opacity="0" result="BackgroundImageFix"/>
<feGaussianBlur in="BackgroundImage" stdDeviation="15.318"/>
<feComposite in2="SourceAlpha" operator="in" result="effect1_backgroundBlur_21_793"/>
<feBlend mode="normal" in="SourceGraphic" in2="effect1_backgroundBlur_21_793" result="shape"/>
</filter>
<filter id="filter27_b_21_793" x="932.782" y="3019.46" width="621.041" height="479.235" filterUnits="userSpaceOnUse" color-interpolation-filters="sRGB">
<feFlood flood-opacity="0" result="BackgroundImageFix"/>
<feGaussianBlur in="BackgroundImage" stdDeviation="15.318"/>
<feComposite in2="SourceAlpha" operator="in" result="effect1_backgroundBlur_21_793"/>
<feBlend mode="normal" in="SourceGraphic" in2="effect1_backgroundBlur_21_793" result="shape"/>
</filter>
<filter id="filter28_f_21_793" x="-450" y="5989" width="1558" height="1414.62" filterUnits="userSpaceOnUse" color-interpolation-filters="sRGB">
<feFlood flood-opacity="0" result="BackgroundImageFix"/>
<feBlend mode="normal" in="SourceGraphic" in2="BackgroundImageFix" result="shape"/>
<feGaussianBlur stdDeviation="225" result="effect1_foregroundBlur_21_793"/>
</filter>
<filter id="filter29_f_21_793" x="261" y="5927" width="1558" height="1414.62" filterUnits="userSpaceOnUse" color-interpolation-filters="sRGB">
<feFlood flood-opacity="0" result="BackgroundImageFix"/>
<feBlend mode="normal" in="SourceGraphic" in2="BackgroundImageFix" result="shape"/>
<feGaussianBlur stdDeviation="225" result="effect1_foregroundBlur_21_793"/>
</filter>
<filter id="filter30_b_21_793" x="-318.793" y="5223.47" width="621.041" height="479.235" filterUnits="userSpaceOnUse" color-interpolation-filters="sRGB">
<feFlood flood-opacity="0" result="BackgroundImageFix"/>
<feGaussianBlur in="BackgroundImage" stdDeviation="15.318"/>
<feComposite in2="SourceAlpha" operator="in" result="effect1_backgroundBlur_21_793"/>
<feBlend mode="normal" in="SourceGraphic" in2="effect1_backgroundBlur_21_793" result="shape"/>
</filter>
<filter id="filter31_b_21_793" x="-253.282" y="5322.59" width="621.041" height="479.235" filterUnits="userSpaceOnUse" color-interpolation-filters="sRGB">
<feFlood flood-opacity="0" result="BackgroundImageFix"/>
<feGaussianBlur in="BackgroundImage" stdDeviation="15.318"/>
<feComposite in2="SourceAlpha" operator="in" result="effect1_backgroundBlur_21_793"/>
<feBlend mode="normal" in="SourceGraphic" in2="effect1_backgroundBlur_21_793" result="shape"/>
</filter>
<filter id="filter32_b_21_793" x="-188.338" y="5421.78" width="621.041" height="479.235" filterUnits="userSpaceOnUse" color-interpolation-filters="sRGB">
<feFlood flood-opacity="0" result="BackgroundImageFix"/>
<feGaussianBlur in="BackgroundImage" stdDeviation="15.318"/>
<feComposite in2="SourceAlpha" operator="in" result="effect1_backgroundBlur_21_793"/>
<feBlend mode="normal" in="SourceGraphic" in2="effect1_backgroundBlur_21_793" result="shape"/>
</filter>
<filter id="filter33_b_21_793" x="-110.405" y="5486.3" width="621.041" height="479.235" filterUnits="userSpaceOnUse" color-interpolation-filters="sRGB">
<feFlood flood-opacity="0" result="BackgroundImageFix"/>
<feGaussianBlur in="BackgroundImage" stdDeviation="15.318"/>
<feComposite in2="SourceAlpha" operator="in" result="effect1_backgroundBlur_21_793"/>
<feBlend mode="normal" in="SourceGraphic" in2="effect1_backgroundBlur_21_793" result="shape"/>
</filter>
<filter id="filter34_f_21_793" x="148" y="2977" width="2634" height="2634" filterUnits="userSpaceOnUse" color-interpolation-filters="sRGB">
<feFlood flood-opacity="0" result="BackgroundImageFix"/>
<feBlend mode="normal" in="SourceGraphic" in2="BackgroundImageFix" result="shape"/>
<feGaussianBlur stdDeviation="500" result="effect1_foregroundBlur_21_793"/>
</filter>
<linearGradient id="paint0_linear_21_793" x1="1231.54" y1="1505.47" x2="2071.81" y2="1915.85" gradientUnits="userSpaceOnUse">
<stop stop-color="#9353FF"/>
<stop offset="1" stop-color="white" stop-opacity="0"/>
<stop offset="1" stop-color="#2B14F9" stop-opacity="0"/>
</linearGradient>
<linearGradient id="paint1_linear_21_793" x1="1166.03" y1="1406.35" x2="2006.3" y2="1816.73" gradientUnits="userSpaceOnUse">
<stop stop-color="#9353FF"/>
<stop offset="1" stop-color="white" stop-opacity="0"/>
<stop offset="1" stop-color="#2B14F9" stop-opacity="0"/>
</linearGradient>
<linearGradient id="paint2_linear_21_793" x1="1101.09" y1="1307.16" x2="1941.36" y2="1717.54" gradientUnits="userSpaceOnUse">
<stop stop-color="#9353FF"/>
<stop offset="1" stop-color="white" stop-opacity="0"/>
<stop offset="1" stop-color="#2B14F9" stop-opacity="0"/>
</linearGradient>
<linearGradient id="paint3_linear_21_793" x1="1023.15" y1="1242.64" x2="1863.42" y2="1653.02" gradientUnits="userSpaceOnUse">
<stop stop-color="#9353FF"/>
<stop offset="1" stop-color="white" stop-opacity="0"/>
<stop offset="1" stop-color="#2B14F9" stop-opacity="0"/>
</linearGradient>
<linearGradient id="paint4_linear_21_793" x1="1091.7" y1="6877.47" x2="1931.97" y2="7287.85" gradientUnits="userSpaceOnUse">
<stop stop-color="#9353FF"/>
<stop offset="1" stop-color="white" stop-opacity="0"/>
<stop offset="1" stop-color="#2B14F9" stop-opacity="0"/>
</linearGradient>
<linearGradient id="paint5_linear_21_793" x1="1026.19" y1="6778.35" x2="1866.46" y2="7188.73" gradientUnits="userSpaceOnUse">
<stop stop-color="#9353FF"/>
<stop offset="1" stop-color="white" stop-opacity="0"/>
<stop offset="1" stop-color="#2B14F9" stop-opacity="0"/>
</linearGradient>
<linearGradient id="paint6_linear_21_793" x1="961.243" y1="6679.16" x2="1801.51" y2="7089.54" gradientUnits="userSpaceOnUse">
<stop stop-color="#9353FF"/>
<stop offset="1" stop-color="white" stop-opacity="0"/>
<stop offset="1" stop-color="#2B14F9" stop-opacity="0"/>
</linearGradient>
<linearGradient id="paint7_linear_21_793" x1="883.31" y1="6614.64" x2="1723.58" y2="7025.02" gradientUnits="userSpaceOnUse">
<stop stop-color="#9353FF"/>
<stop offset="1" stop-color="white" stop-opacity="0"/>
<stop offset="1" stop-color="#2B14F9" stop-opacity="0"/>
</linearGradient>
<linearGradient id="paint8_linear_21_793" x1="1030.18" y1="4401.87" x2="2115.46" y2="4931.91" gradientUnits="userSpaceOnUse">
<stop stop-color="#9353FF"/>
<stop offset="1" stop-color="white" stop-opacity="0"/>
<stop offset="1" stop-color="#2B14F9" stop-opacity="0"/>
</linearGradient>
<linearGradient id="paint9_linear_21_793" x1="945.57" y1="4273.84" x2="2030.85" y2="4803.88" gradientUnits="userSpaceOnUse">
<stop stop-color="#9353FF"/>
<stop offset="1" stop-color="white" stop-opacity="0"/>
<stop offset="1" stop-color="#2B14F9" stop-opacity="0"/>
</linearGradient>
<linearGradient id="paint10_linear_21_793" x1="861.69" y1="4145.74" x2="1946.97" y2="4675.78" gradientUnits="userSpaceOnUse">
<stop stop-color="#9353FF"/>
<stop offset="1" stop-color="white" stop-opacity="0"/>
<stop offset="1" stop-color="#2B14F9" stop-opacity="0"/>
</linearGradient>
<linearGradient id="paint11_linear_21_793" x1="761.033" y1="4062.4" x2="1846.31" y2="4592.44" gradientUnits="userSpaceOnUse">
<stop stop-color="#9353FF"/>
<stop offset="1" stop-color="white" stop-opacity="0"/>
<stop offset="1" stop-color="#2B14F9" stop-opacity="0"/>
</linearGradient>
<linearGradient id="paint12_linear_21_793" x1="306.459" y1="1336.53" x2="-533.813" y2="926.149" gradientUnits="userSpaceOnUse">
<stop stop-color="#9353FF"/>
<stop offset="1" stop-color="white" stop-opacity="0"/>
<stop offset="1" stop-color="#2B14F9" stop-opacity="0"/>
</linearGradient>
<linearGradient id="paint13_linear_21_793" x1="371.971" y1="1435.65" x2="-468.302" y2="1025.27" gradientUnits="userSpaceOnUse">
<stop stop-color="#9353FF"/>
<stop offset="1" stop-color="white" stop-opacity="0"/>
<stop offset="1" stop-color="#2B14F9" stop-opacity="0"/>
</linearGradient>
<linearGradient id="paint14_linear_21_793" x1="436.915" y1="1534.84" x2="-403.358" y2="1124.46" gradientUnits="userSpaceOnUse">
<stop stop-color="#9353FF"/>
<stop offset="1" stop-color="white" stop-opacity="0"/>
<stop offset="1" stop-color="#2B14F9" stop-opacity="0"/>
</linearGradient>
<linearGradient id="paint15_linear_21_793" x1="514.847" y1="1599.36" x2="-325.425" y2="1188.98" gradientUnits="userSpaceOnUse">
<stop stop-color="#9353FF"/>
<stop offset="1" stop-color="white" stop-opacity="0"/>
<stop offset="1" stop-color="#2B14F9" stop-opacity="0"/>
</linearGradient>
<linearGradient id="paint16_linear_21_793" x1="1532.21" y1="-12.2701" x2="921.769" y2="598.963" gradientUnits="userSpaceOnUse">
<stop offset="0.427083" stop-color="#0D0B0D"/>
<stop offset="1" stop-color="#0D0B0C" stop-opacity="0"/>
</linearGradient>
<linearGradient id="paint17_linear_21_793" x1="1133.12" y1="3368.47" x2="1973.39" y2="3778.85" gradientUnits="userSpaceOnUse">
<stop stop-color="#9353FF"/>
<stop offset="1" stop-color="white" stop-opacity="0"/>
<stop offset="1" stop-color="#2B14F9" stop-opacity="0"/>
</linearGradient>
<linearGradient id="paint18_linear_21_793" x1="1067.61" y1="3269.35" x2="1907.88" y2="3679.73" gradientUnits="userSpaceOnUse">
<stop stop-color="#9353FF"/>
<stop offset="1" stop-color="white" stop-opacity="0"/>
<stop offset="1" stop-color="#2B14F9" stop-opacity="0"/>
</linearGradient>
<linearGradient id="paint19_linear_21_793" x1="1002.66" y1="3170.16" x2="1842.93" y2="3580.54" gradientUnits="userSpaceOnUse">
<stop stop-color="#9353FF"/>
<stop offset="1" stop-color="white" stop-opacity="0"/>
<stop offset="1" stop-color="#2B14F9" stop-opacity="0"/>
</linearGradient>
<linearGradient id="paint20_linear_21_793" x1="924.729" y1="3105.64" x2="1765" y2="3516.02" gradientUnits="userSpaceOnUse">
<stop stop-color="#9353FF"/>
<stop offset="1" stop-color="white" stop-opacity="0"/>
<stop offset="1" stop-color="#2B14F9" stop-opacity="0"/>
</linearGradient>
<linearGradient id="paint21_linear_21_793" x1="310.302" y1="5616.53" x2="-529.97" y2="5206.15" gradientUnits="userSpaceOnUse">
<stop stop-color="#9353FF"/>
<stop offset="1" stop-color="white" stop-opacity="0"/>
<stop offset="1" stop-color="#2B14F9" stop-opacity="0"/>
</linearGradient>
<linearGradient id="paint22_linear_21_793" x1="375.813" y1="5715.65" x2="-464.459" y2="5305.27" gradientUnits="userSpaceOnUse">
<stop stop-color="#9353FF"/>
<stop offset="1" stop-color="white" stop-opacity="0"/>
<stop offset="1" stop-color="#2B14F9" stop-opacity="0"/>
</linearGradient>
<linearGradient id="paint23_linear_21_793" x1="440.757" y1="5814.84" x2="-399.515" y2="5404.46" gradientUnits="userSpaceOnUse">
<stop stop-color="#9353FF"/>
<stop offset="1" stop-color="white" stop-opacity="0"/>
<stop offset="1" stop-color="#2B14F9" stop-opacity="0"/>
</linearGradient>
<linearGradient id="paint24_linear_21_793" x1="518.69" y1="5879.36" x2="-321.582" y2="5468.98" gradientUnits="userSpaceOnUse">
<stop stop-color="#9353FF"/>
<stop offset="1" stop-color="white" stop-opacity="0"/>
<stop offset="1" stop-color="#2B14F9" stop-opacity="0"/>
</linearGradient>
<clipPath id="clip0_21_793">
<rect width="1440" height="7214" fill="white"/>
</clipPath>
</defs>
</svg>
