<svg width="368" height="460" viewBox="0 0 368 460" fill="none" xmlns="http://www.w3.org/2000/svg">
<path d="M183.671 73.4348L297.186 110.318L367.342 206.879V326.236L297.186 422.797L183.671 459.681L70.156 422.797L0 326.236V206.879L70.156 110.318L183.671 73.4348Z" fill="#1B1B1B"/>
<g filter="url(#filter0_d_301_24)">
<circle cx="181.507" cy="182.339" r="76.9587" fill="#D3F604"/>
</g>
<mask id="path-3-inside-1_301_24" fill="white">
<path d="M227.03 161.29L297.186 110.318L367.342 206.879V326.236L297.186 422.797L183.671 459.68L70.156 422.797L0 326.236V206.879L70.156 110.318L227.03 161.29Z"/>
</mask>
<path d="M227.03 161.29L297.186 110.318L367.342 206.879V326.236L297.186 422.797L183.671 459.68L70.156 422.797L0 326.236V206.879L70.156 110.318L227.03 161.29Z" fill="url(#paint0_linear_301_24)"/>
<path d="M227.03 161.29L297.186 110.318L367.342 206.879V326.236L297.186 422.797L183.671 459.68L70.156 422.797L0 326.236V206.879L70.156 110.318L227.03 161.29Z" fill="url(#paint1_linear_301_24)"/>
<path d="M227.03 161.29L233.666 155.645L221.179 140.966L218.408 160.037L227.03 161.29ZM367.342 206.879L375.627 209.572L378.32 201.286L370.034 198.593L367.342 206.879ZM367.342 326.236L370.034 334.522L382.408 330.501L373.978 320.591L367.342 326.236ZM183.671 459.68L176.622 464.801L189.212 482.13L192.293 460.933L183.671 459.68ZM292.065 103.269L-5.12097 319.187L5.12097 333.284L302.307 117.366L292.065 103.269ZM370.034 198.593L72.8483 102.032L67.4637 118.604L364.649 215.165L370.034 198.593ZM373.978 320.591L233.666 155.645L220.393 166.935L360.705 331.881L373.978 320.591ZM305.471 425.49L375.627 209.572L359.056 204.187L288.9 420.105L305.471 425.49ZM190.719 454.56L7.04841 201.758L-7.04841 212L176.622 464.801L190.719 454.56ZM72.8483 431.083L370.034 334.522L364.649 317.95L67.4637 414.511L72.8483 431.083ZM192.293 460.933L235.651 162.543L218.408 160.037L175.049 458.428L192.293 460.933ZM227.03 161.29L221.645 177.861L230.089 180.605L237.272 175.386L227.03 161.29ZM297.186 110.318L311.282 100.076L301.04 85.9791L286.944 96.2211L297.186 110.318ZM367.342 206.879H384.766V201.218L381.438 196.637L367.342 206.879ZM367.342 326.236L381.438 336.478L384.766 331.897V326.236H367.342ZM297.186 422.797L302.57 439.369L307.955 437.62L311.282 433.039L297.186 422.797ZM183.671 459.68L178.286 476.252L183.671 478.002L189.055 476.252L183.671 459.68ZM70.156 422.797L56.0592 433.039L59.387 437.62L64.7715 439.369L70.156 422.797ZM0 326.236H-17.4246V331.897L-14.0968 336.478L0 326.236ZM0 206.879L-14.0968 196.637L-17.4246 201.218V206.879H0ZM70.156 110.318L75.5406 93.7461L63.5004 89.834L56.0592 100.076L70.156 110.318ZM237.272 175.386L307.428 124.415L286.944 96.2211L216.788 147.193L237.272 175.386ZM283.089 120.56L353.245 217.121L381.438 196.637L311.282 100.076L283.089 120.56ZM349.917 206.879V326.236H384.766V206.879H349.917ZM353.245 315.994L283.089 412.555L311.282 433.039L381.438 336.478L353.245 315.994ZM291.801 406.225L178.286 443.109L189.055 476.252L302.57 439.369L291.801 406.225ZM189.055 443.109L75.5405 406.225L64.7715 439.369L178.286 476.252L189.055 443.109ZM84.2528 412.555L14.0968 315.994L-14.0968 336.478L56.0592 433.039L84.2528 412.555ZM17.4246 326.236V206.879H-17.4246V326.236H17.4246ZM14.0968 217.121L84.2528 120.56L56.0592 100.076L-14.0968 196.637L14.0968 217.121ZM64.7714 126.89L221.645 177.861L232.414 144.718L75.5406 93.7461L64.7714 126.89Z" fill="#1B1B1B" mask="url(#path-3-inside-1_301_24)"/>
<path d="M183.671 73.4348L297.186 110.318L367.342 206.879V326.236L297.186 422.797L183.671 459.681L70.156 422.797L0 326.236V206.879L70.156 110.318L183.671 73.4348Z" fill="#1B1B1B"/>
<g filter="url(#filter1_d_301_24)">
<circle cx="181.507" cy="182.339" r="76.9587" fill="#D3F604"/>
</g>
<mask id="path-7-inside-2_301_24" fill="white">
<path d="M227.03 161.29L297.186 110.318L367.342 206.879V326.236L297.186 422.797L183.671 459.68L70.156 422.797L0 326.236V206.879L70.156 110.318L227.03 161.29Z"/>
</mask>
<path d="M227.03 161.29L297.186 110.318L367.342 206.879V326.236L297.186 422.797L183.671 459.68L70.156 422.797L0 326.236V206.879L70.156 110.318L227.03 161.29Z" fill="url(#paint2_linear_301_24)"/>
<path d="M227.03 161.29L297.186 110.318L367.342 206.879V326.236L297.186 422.797L183.671 459.68L70.156 422.797L0 326.236V206.879L70.156 110.318L227.03 161.29Z" fill="url(#paint3_linear_301_24)"/>
<path d="M227.03 161.29L232.329 156.782L222.358 145.06L220.145 160.289L227.03 161.29ZM367.342 206.879L373.958 209.029L376.108 202.413L369.491 200.263L367.342 206.879ZM367.342 326.236L369.491 332.852L379.373 329.642L372.641 321.728L367.342 326.236ZM183.671 459.68L178.042 463.77L188.096 477.608L190.556 460.681L183.671 459.68ZM293.096 104.689L-4.08932 320.607L4.08932 331.864L301.275 115.946L293.096 104.689ZM369.491 200.263L72.3059 103.701L68.0061 116.935L365.192 213.496L369.491 200.263ZM372.641 321.728L232.329 156.782L221.73 165.798L362.042 330.744L372.641 321.728ZM303.802 424.947L373.958 209.029L360.725 204.729L290.569 420.647L303.802 424.947ZM189.299 455.591L5.62846 202.79L-5.62846 210.969L178.042 463.77L189.299 455.591ZM72.3059 429.414L369.491 332.852L365.192 319.619L68.0061 416.181L72.3059 429.414ZM190.556 460.681L233.914 162.29L220.145 160.289L176.786 458.68L190.556 460.681ZM227.03 161.29L222.73 174.523L229.473 176.714L235.208 172.547L227.03 161.29ZM297.186 110.318L308.442 102.139L300.264 90.8823L289.007 99.061L297.186 110.318ZM367.342 206.879H381.256V202.358L378.598 198.701L367.342 206.879ZM367.342 326.236L378.598 334.414L381.256 330.757V326.236H367.342ZM297.186 422.797L301.485 436.031L305.785 434.634L308.442 430.976L297.186 422.797ZM183.671 459.68L179.371 472.914L183.671 474.311L187.971 472.914L183.671 459.68ZM70.156 422.797L58.8991 430.976L61.5565 434.634L65.8562 436.031L70.156 422.797ZM0 326.236H-13.9143V330.757L-11.2569 334.414L0 326.236ZM0 206.879L-11.2569 198.701L-13.9143 202.358V206.879H0ZM70.156 110.318L74.4558 97.0846L64.8412 93.9606L58.8991 102.139L70.156 110.318ZM235.208 172.547L305.364 121.575L289.007 99.061L218.851 150.033L235.208 172.547ZM285.929 118.497L356.085 215.058L378.598 198.701L308.442 102.139L285.929 118.497ZM353.427 206.879V326.236H381.256V206.879H353.427ZM356.085 318.057L285.929 414.619L308.442 430.976L378.598 334.414L356.085 318.057ZM292.886 409.564L179.371 446.447L187.971 472.914L301.485 436.031L292.886 409.564ZM187.971 446.447L74.4558 409.564L65.8562 436.031L179.371 472.914L187.971 446.447ZM81.4129 414.619L11.2569 318.057L-11.2569 334.414L58.8991 430.976L81.4129 414.619ZM13.9143 326.236V206.879H-13.9143V326.236H13.9143ZM11.2569 215.058L81.4129 118.497L58.8991 102.139L-11.2569 198.701L11.2569 215.058ZM65.8562 123.551L222.73 174.523L231.329 148.056L74.4558 97.0846L65.8562 123.551Z" fill="#1B1B1B" mask="url(#path-7-inside-2_301_24)"/>
<defs>
<filter id="filter0_d_301_24" x="0.000369072" y="0.832156" width="363.013" height="363.013" filterUnits="userSpaceOnUse" color-interpolation-filters="sRGB">
<feFlood flood-opacity="0" result="BackgroundImageFix"/>
<feColorMatrix in="SourceAlpha" type="matrix" values="0 0 0 0 0 0 0 0 0 0 0 0 0 0 0 0 0 0 127 0" result="hardAlpha"/>
<feMorphology radius="11.6164" operator="dilate" in="SourceAlpha" result="effect1_dropShadow_301_24"/>
<feOffset/>
<feGaussianBlur stdDeviation="46.4657"/>
<feColorMatrix type="matrix" values="0 0 0 0 0.878431 0 0 0 0 0.945098 0 0 0 0 0.462745 0 0 0 1 0"/>
<feBlend mode="normal" in2="BackgroundImageFix" result="effect1_dropShadow_301_24"/>
<feBlend mode="normal" in="SourceGraphic" in2="effect1_dropShadow_301_24" result="shape"/>
</filter>
<filter id="filter1_d_301_24" x="0.000369072" y="0.832156" width="363.013" height="363.013" filterUnits="userSpaceOnUse" color-interpolation-filters="sRGB">
<feFlood flood-opacity="0" result="BackgroundImageFix"/>
<feColorMatrix in="SourceAlpha" type="matrix" values="0 0 0 0 0 0 0 0 0 0 0 0 0 0 0 0 0 0 127 0" result="hardAlpha"/>
<feMorphology radius="11.6164" operator="dilate" in="SourceAlpha" result="effect1_dropShadow_301_24"/>
<feOffset/>
<feGaussianBlur stdDeviation="46.4657"/>
<feColorMatrix type="matrix" values="0 0 0 0 0.878431 0 0 0 0 0.945098 0 0 0 0 0.462745 0 0 0 1 0"/>
<feBlend mode="normal" in2="BackgroundImageFix" result="effect1_dropShadow_301_24"/>
<feBlend mode="normal" in="SourceGraphic" in2="effect1_dropShadow_301_24" result="shape"/>
</filter>
<linearGradient id="paint0_linear_301_24" x1="-1.61757e-06" y1="73.4352" x2="365.917" y2="459.681" gradientUnits="userSpaceOnUse">
<stop stop-color="#DAFF01"/>
<stop offset="1" stop-color="#9353FF"/>
</linearGradient>
<linearGradient id="paint1_linear_301_24" x1="365.917" y1="73.4352" x2="-7.17279e-05" y2="459.681" gradientUnits="userSpaceOnUse">
<stop stop-color="#9353FF"/>
<stop offset="1" stop-color="white" stop-opacity="0"/>
<stop offset="1" stop-color="#9928CE"/>
<stop offset="1" stop-color="#9353FF"/>
</linearGradient>
<linearGradient id="paint2_linear_301_24" x1="-1.61757e-06" y1="73.4352" x2="365.917" y2="459.681" gradientUnits="userSpaceOnUse">
<stop stop-color="#DAFF01"/>
<stop offset="1" stop-color="#9353FF"/>
</linearGradient>
<linearGradient id="paint3_linear_301_24" x1="365.917" y1="73.4352" x2="-7.17279e-05" y2="459.681" gradientUnits="userSpaceOnUse">
<stop stop-color="#9353FF"/>
<stop offset="1" stop-color="white" stop-opacity="0"/>
<stop offset="1" stop-color="#9928CE"/>
<stop offset="1" stop-color="#9353FF"/>
</linearGradient>
</defs>
</svg>