<svg width="309" height="131" viewBox="0 0 309 131" fill="none" xmlns="http://www.w3.org/2000/svg">
<path d="M116.529 70.0029C116.529 66.0769 117.378 62.5851 119.077 59.5274C120.776 56.4319 123.135 54.0349 126.155 52.3361C129.213 50.5997 132.667 49.7314 136.517 49.7314C141.236 49.7314 145.275 50.9771 148.635 53.4686C151.994 55.9601 154.24 59.3575 155.373 63.661H144.728C143.935 62 142.802 60.7354 141.33 59.8671C139.896 58.9989 138.254 58.5648 136.404 58.5648C133.422 58.5648 131.006 59.6029 129.156 61.6791C127.306 63.7553 126.381 66.5299 126.381 70.0029C126.381 73.4758 127.306 76.2504 129.156 78.3266C131.006 80.4028 133.422 81.4409 136.404 81.4409C138.254 81.4409 139.896 81.0068 141.33 80.1386C142.802 79.2704 143.935 78.0057 144.728 76.3448H155.373C154.24 80.6482 151.994 84.0457 148.635 86.5371C145.275 88.9908 141.236 90.2177 136.517 90.2177C132.667 90.2177 129.213 89.3683 126.155 87.6696C123.135 85.9331 120.776 83.536 119.077 80.4783C117.378 77.4206 116.529 73.9288 116.529 70.0029ZM171.26 50.1844V73.9666C171.26 76.3448 171.845 78.1756 173.015 79.4591C174.186 80.7426 175.903 81.3843 178.168 81.3843C180.433 81.3843 182.17 80.7426 183.378 79.4591C184.586 78.1756 185.19 76.3448 185.19 73.9666V50.1844H194.872V73.9099C194.872 77.4584 194.117 80.4595 192.607 82.9132C191.097 85.3669 189.059 87.2166 186.492 88.4623C183.963 89.7081 181.132 90.3309 177.998 90.3309C174.865 90.3309 172.053 89.7269 169.561 88.519C167.108 87.2732 165.164 85.4235 163.729 82.9698C162.295 80.4783 161.577 77.4584 161.577 73.9099V50.1844H171.26ZM216.499 90.3309C213.592 90.3309 210.987 89.8591 208.685 88.9153C206.382 87.9716 204.532 86.5749 203.136 84.7251C201.777 82.8754 201.059 80.6482 200.984 78.0435H211.289C211.44 79.5157 211.95 80.6482 212.818 81.4409C213.687 82.1959 214.819 82.5734 216.216 82.5734C217.65 82.5734 218.783 82.2526 219.613 81.6108C220.444 80.9313 220.859 80.0065 220.859 78.8362C220.859 77.8547 220.519 77.0431 219.84 76.4014C219.198 75.7597 218.386 75.2312 217.405 74.8159C216.461 74.4007 215.102 73.9288 213.328 73.4003C210.761 72.6076 208.666 71.8148 207.043 71.0221C205.419 70.2294 204.023 69.0591 202.852 67.5114C201.682 65.9637 201.097 63.9441 201.097 61.4526C201.097 57.7532 202.437 54.8653 205.117 52.7891C207.798 50.6752 211.289 49.6182 215.593 49.6182C219.972 49.6182 223.501 50.6752 226.182 52.7891C228.862 54.8653 230.296 57.772 230.485 61.5092H220.01C219.934 60.2258 219.462 59.2254 218.594 58.5082C217.726 57.7532 216.612 57.3757 215.253 57.3757C214.083 57.3757 213.139 57.6965 212.422 58.3383C211.705 58.9423 211.346 59.8294 211.346 60.9996C211.346 62.2831 211.95 63.2835 213.158 64.0007C214.366 64.7179 216.254 65.4918 218.82 66.3223C221.387 67.1905 223.464 68.021 225.049 68.8138C226.672 69.6065 228.069 70.7579 229.239 72.2678C230.41 73.7778 230.995 75.7219 230.995 78.1001C230.995 80.3651 230.41 82.4224 229.239 84.2722C228.107 86.1219 226.446 87.5941 224.256 88.6888C222.067 89.7836 219.481 90.3309 216.499 90.3309ZM247.081 57.9419V65.9826H260.048V73.4569H247.081V82.1771H261.747V89.9346H237.398V50.1844H261.747V57.9419H247.081ZM266.835 70.0029C266.835 66.0769 267.685 62.5851 269.383 59.5274C271.082 56.4319 273.441 54.0349 276.461 52.3361C279.519 50.5997 282.973 49.7314 286.824 49.7314C291.542 49.7314 295.581 50.9771 298.941 53.4686C302.301 55.9601 304.547 59.3575 305.679 63.661H295.034C294.241 62 293.109 60.7354 291.637 59.8671C290.202 58.9989 288.56 58.5648 286.71 58.5648C283.728 58.5648 281.312 59.6029 279.462 61.6791C277.613 63.7553 276.688 66.5299 276.688 70.0029C276.688 73.4758 277.613 76.2504 279.462 78.3266C281.312 80.4028 283.728 81.4409 286.71 81.4409C288.56 81.4409 290.202 81.0068 291.637 80.1386C293.109 79.2704 294.241 78.0057 295.034 76.3448H305.679C304.547 80.6482 302.301 84.0457 298.941 86.5371C295.581 88.9908 291.542 90.2177 286.824 90.2177C282.973 90.2177 279.519 89.3683 276.461 87.6696C273.441 85.9331 271.082 83.536 269.383 80.4783C267.685 77.4206 266.835 73.9288 266.835 70.0029Z" fill="#DAFF01"/>
<path d="M257.587 109.695C258.995 108.522 260.117 107.546 260.953 106.769C261.789 105.977 262.486 105.156 263.043 104.305C263.6 103.454 263.879 102.618 263.879 101.797C263.879 101.049 263.703 100.462 263.351 100.037C262.999 99.6116 262.456 99.3989 261.723 99.3989C260.99 99.3989 260.425 99.6482 260.029 100.147C259.633 100.631 259.428 101.298 259.413 102.149H256.421C256.48 100.389 257 99.0542 257.983 98.1449C258.98 97.2356 260.242 96.7809 261.767 96.7809C263.439 96.7809 264.722 97.2282 265.617 98.1229C266.512 99.0029 266.959 100.169 266.959 101.621C266.959 102.765 266.651 103.858 266.035 104.899C265.419 105.94 264.715 106.85 263.923 107.627C263.131 108.39 262.097 109.314 260.821 110.399H267.311V112.951H256.443V110.663L257.587 109.695ZM269.252 104.943C269.252 102.406 269.707 100.418 270.616 98.9809C271.54 97.5436 273.065 96.8249 275.192 96.8249C277.319 96.8249 278.837 97.5436 279.746 98.9809C280.67 100.418 281.132 102.406 281.132 104.943C281.132 107.495 280.67 109.497 279.746 110.949C278.837 112.401 277.319 113.127 275.192 113.127C273.065 113.127 271.54 112.401 270.616 110.949C269.707 109.497 269.252 107.495 269.252 104.943ZM278.096 104.943C278.096 103.858 278.023 102.948 277.876 102.215C277.744 101.467 277.465 100.858 277.04 100.389C276.629 99.9196 276.013 99.6849 275.192 99.6849C274.371 99.6849 273.747 99.9196 273.322 100.389C272.911 100.858 272.633 101.467 272.486 102.215C272.354 102.948 272.288 103.858 272.288 104.943C272.288 106.058 272.354 106.996 272.486 107.759C272.618 108.507 272.897 109.116 273.322 109.585C273.747 110.04 274.371 110.267 275.192 110.267C276.013 110.267 276.637 110.04 277.062 109.585C277.487 109.116 277.766 108.507 277.898 107.759C278.03 106.996 278.096 106.058 278.096 104.943ZM284.443 109.695C285.851 108.522 286.973 107.546 287.809 106.769C288.645 105.977 289.341 105.156 289.899 104.305C290.456 103.454 290.735 102.618 290.735 101.797C290.735 101.049 290.559 100.462 290.207 100.037C289.855 99.6116 289.312 99.3989 288.579 99.3989C287.845 99.3989 287.281 99.6482 286.885 100.147C286.489 100.631 286.283 101.298 286.269 102.149H283.277C283.335 100.389 283.856 99.0542 284.839 98.1449C285.836 97.2356 287.097 96.7809 288.623 96.7809C290.295 96.7809 291.578 97.2282 292.473 98.1229C293.367 99.0029 293.815 100.169 293.815 101.621C293.815 102.765 293.507 103.858 292.891 104.899C292.275 105.94 291.571 106.85 290.779 107.627C289.987 108.39 288.953 109.314 287.677 110.399H294.167V112.951H283.299V110.663L284.443 109.695ZM296.151 101.357C296.225 99.8902 296.738 98.7609 297.691 97.9689C298.659 97.1622 299.928 96.7589 301.497 96.7589C302.568 96.7589 303.485 96.9496 304.247 97.3309C305.01 97.6976 305.582 98.2036 305.963 98.8489C306.359 99.4796 306.557 100.198 306.557 101.005C306.557 101.929 306.315 102.714 305.831 103.359C305.362 103.99 304.797 104.415 304.137 104.635V104.723C304.988 104.987 305.648 105.456 306.117 106.131C306.601 106.806 306.843 107.671 306.843 108.727C306.843 109.607 306.638 110.392 306.227 111.081C305.831 111.77 305.237 112.313 304.445 112.709C303.668 113.09 302.729 113.281 301.629 113.281C299.972 113.281 298.623 112.863 297.581 112.027C296.54 111.191 295.99 109.959 295.931 108.331H298.923C298.953 109.05 299.195 109.629 299.649 110.069C300.119 110.494 300.757 110.707 301.563 110.707C302.311 110.707 302.883 110.502 303.279 110.091C303.69 109.666 303.895 109.123 303.895 108.463C303.895 107.583 303.617 106.952 303.059 106.571C302.502 106.19 301.637 105.999 300.463 105.999H299.825V103.469H300.463C302.546 103.469 303.587 102.772 303.587 101.379C303.587 100.748 303.397 100.257 303.015 99.9049C302.649 99.5529 302.113 99.3769 301.409 99.3769C300.72 99.3769 300.185 99.5676 299.803 99.9489C299.437 100.316 299.224 100.785 299.165 101.357H296.151Z" fill="white"/>
<g filter="url(#filter0_b_1101_505)">
<mask id="path-3-inside-1_1101_505" fill="white">
<path d="M60.9493 51.2301L79.4747 37.7705L98 63.2685V94.7857L79.4747 120.284L49.5 130.023L19.5254 120.284L1 94.7857V63.2685L19.5254 37.7705L60.9493 51.2301Z"/>
</mask>
<path d="M60.9493 51.2301L79.4747 37.7705L98 63.2685V94.7857L79.4747 120.284L49.5 130.023L19.5254 120.284L1 94.7857V63.2685L19.5254 37.7705L60.9493 51.2301Z" fill="url(#paint0_linear_1101_505)"/>
<path d="M60.9493 51.2301L61.251 50.9735L60.6833 50.3061L60.5573 51.1731L60.9493 51.2301ZM98 63.2685L98.3767 63.3909L98.4991 63.0142L98.1224 62.8918L98 63.2685ZM98 94.7857L98.1224 95.1624L98.685 94.9796L98.3017 94.529L98 94.7857ZM49.5 130.023L49.1796 130.256L49.7519 131.044L49.892 130.08L49.5 130.023ZM79.2418 37.4501L0.767185 94.4652L1.23282 95.1061L79.7075 38.091L79.2418 37.4501ZM98.1224 62.8918L19.6478 37.3938L19.403 38.1472L97.8776 63.6452L98.1224 62.8918ZM98.3017 94.529L61.251 50.9735L60.6476 51.4867L97.6983 95.0423L98.3017 94.529ZM79.8514 120.406L98.3767 63.3909L97.6233 63.1461L79.098 120.161L79.8514 120.406ZM49.8204 129.79L1.32044 63.0357L0.679557 63.5013L49.1796 130.256L49.8204 129.79ZM19.6478 120.66L98.1224 95.1624L97.8776 94.409L19.403 119.907L19.6478 120.66ZM49.892 130.08L61.3413 51.2871L60.5573 51.1731L49.108 129.966L49.892 130.08ZM60.9493 51.2301L60.7045 51.9835L61.0884 52.1082L61.4149 51.871L60.9493 51.2301ZM79.4747 37.7705L80.1155 37.3049L79.6499 36.664L79.009 37.1296L79.4747 37.7705ZM98 63.2685H98.7922V63.0111L98.6409 62.8028L98 63.2685ZM98 94.7857L98.6409 95.2513L98.7922 95.0431V94.7857H98ZM79.4747 120.284L79.7195 121.037L79.9642 120.958L80.1155 120.749L79.4747 120.284ZM49.5 130.023L49.2552 130.776L49.5 130.856L49.7448 130.776L49.5 130.023ZM19.5254 120.284L18.8845 120.749L19.0358 120.958L19.2806 121.037L19.5254 120.284ZM1 94.7857H0.207822V95.0431L0.359114 95.2513L1 94.7857ZM1 63.2685L0.359114 62.8028L0.207822 63.0111V63.2685H1ZM19.5254 37.7705L19.7702 37.0171L19.2228 36.8392L18.8845 37.3049L19.5254 37.7705ZM61.4149 51.871L79.9403 38.4114L79.009 37.1296L60.4837 50.5892L61.4149 51.871ZM78.8338 38.2361L97.3591 63.7341L98.6409 62.8028L80.1155 37.3049L78.8338 38.2361ZM97.2078 63.2685V94.7857H98.7922V63.2685H97.2078ZM97.3591 94.3201L78.8338 119.818L80.1155 120.749L98.6409 95.2513L97.3591 94.3201ZM79.2299 119.53L49.2552 129.27L49.7448 130.776L79.7195 121.037L79.2299 119.53ZM49.7448 129.27L19.7702 119.53L19.2806 121.037L49.2552 130.776L49.7448 129.27ZM20.1662 119.818L1.64089 94.3201L0.359114 95.2513L18.8845 120.749L20.1662 119.818ZM1.79218 94.7857V63.2685H0.207822V94.7857H1.79218ZM1.64089 63.7341L20.1662 38.2361L18.8845 37.3049L0.359114 62.8028L1.64089 63.7341ZM19.2806 38.5239L60.7045 51.9835L61.1941 50.4767L19.7702 37.0171L19.2806 38.5239Z" fill="white" mask="url(#path-3-inside-1_1101_505)"/>
</g>
<path d="M49.5 28L64.4873 32.8697L79.4747 37.7394L98 63.2373V94.7545L79.4747 120.252L49.5 129.992L19.5254 120.252L1 94.7545V63.2373L19.5254 37.7394L49.5 28Z" fill="#A477F0"/>
<g filter="url(#filter1_dd_1101_505)">
<circle cx="49.5756" cy="48.3217" r="20.3217" fill="url(#paint1_linear_1101_505)"/>
</g>
<g filter="url(#filter2_bi_1101_505)">
<mask id="path-7-inside-2_1101_505" fill="white">
<path d="M60.9493 51.2301L79.4747 37.7705L98 63.2685V94.7857L79.4747 120.284L49.5 130.023L19.5254 120.284L1 94.7857V63.2685L19.5254 37.7705L60.9493 51.2301Z"/>
</mask>
<path d="M60.9493 51.2301L79.4747 37.7705L98 63.2685V94.7857L79.4747 120.284L49.5 130.023L19.5254 120.284L1 94.7857V63.2685L19.5254 37.7705L60.9493 51.2301Z" fill="url(#paint2_angular_1101_505)" fill-opacity="0.6"/>
<path d="M60.9493 51.2301L79.4747 37.7705L98 63.2685V94.7857L79.4747 120.284L49.5 130.023L19.5254 120.284L1 94.7857V63.2685L19.5254 37.7705L60.9493 51.2301Z" fill="url(#paint3_angular_1101_505)" fill-opacity="0.7"/>
<path d="M60.9493 51.2301L79.4747 37.7705L98 63.2685V94.7857L79.4747 120.284L49.5 130.023L19.5254 120.284L1 94.7857V63.2685L19.5254 37.7705L60.9493 51.2301Z" fill="url(#paint4_angular_1101_505)" fill-opacity="0.6"/>
<path d="M60.9493 51.2301L60.9901 51.1045L60.8412 51.0561L60.8186 51.2111L60.9493 51.2301ZM98 63.2685L98.1256 63.3093L98.1664 63.1837L98.0408 63.1429L98 63.2685ZM49.5 130.023L49.3932 130.101L49.584 130.363L49.6307 130.042L49.5 130.023ZM79.397 37.6637L0.922395 94.6789L1.07761 94.8925L79.5523 37.8773L79.397 37.6637ZM98.0408 63.1429L19.5662 37.6449L19.4846 37.8961L97.9592 63.394L98.0408 63.1429ZM79.6002 120.324L98.1256 63.3093L97.8744 63.2277L79.3491 120.243L79.6002 120.324ZM49.6068 129.945L1.10681 63.1909L0.893186 63.3461L49.3932 130.101L49.6068 129.945ZM19.5662 120.409L98.0408 94.9113L97.9592 94.6601L19.4846 120.158L19.5662 120.409ZM49.6307 130.042L61.08 51.2491L60.8186 51.2111L49.3693 130.004L49.6307 130.042ZM98.0408 63.1429L60.9901 51.1045L60.9085 51.3557L97.9592 63.394L98.0408 63.1429ZM60.9493 51.2301L60.8677 51.4812L60.9957 51.5228L61.1045 51.4437L60.9493 51.2301ZM79.4747 37.7705L79.6883 37.6153L79.5331 37.4017L79.3194 37.5569L79.4747 37.7705ZM98 63.2685H98.2641V63.1827L98.2136 63.1133L98 63.2685ZM98 94.7857L98.2136 94.9409L98.2641 94.8715V94.7857H98ZM79.4747 120.284L79.5563 120.535L79.6379 120.508L79.6883 120.439L79.4747 120.284ZM49.5 130.023L49.4184 130.274L49.5 130.301L49.5816 130.274L49.5 130.023ZM19.5254 120.284L19.3117 120.439L19.3622 120.508L19.4438 120.535L19.5254 120.284ZM1 94.7857H0.735941V94.8715L0.786371 94.9409L1 94.7857ZM1 63.2685L0.786371 63.1133L0.735941 63.1827V63.2685H1ZM19.5254 37.7705L19.607 37.5194L19.4245 37.4601L19.3117 37.6153L19.5254 37.7705ZM61.1045 51.4437L79.6299 37.9841L79.3194 37.5569L60.7941 51.0165L61.1045 51.4437ZM79.261 37.9257L97.7864 63.4237L98.2136 63.1133L79.6883 37.6153L79.261 37.9257ZM97.7359 63.2685V94.7857H98.2641V63.2685H97.7359ZM97.7864 94.6305L79.261 120.128L79.6883 120.439L98.2136 94.9409L97.7864 94.6305ZM79.3931 120.033L49.4184 129.772L49.5816 130.274L79.5563 120.535L79.3931 120.033ZM49.5816 129.772L19.607 120.033L19.4438 120.535L49.4184 130.274L49.5816 129.772ZM19.739 120.128L1.21363 94.6305L0.786371 94.9409L19.3117 120.439L19.739 120.128ZM1.26406 94.7857V63.2685H0.735941V94.7857H1.26406ZM1.21363 63.4237L19.739 37.9257L19.3117 37.6153L0.786371 63.1133L1.21363 63.4237ZM19.4438 38.0216L60.8677 51.4812L61.0309 50.979L19.607 37.5194L19.4438 38.0216Z" fill="white" mask="url(#path-7-inside-2_1101_505)"/>
</g>
<path d="M1 62.9219L60.5714 51.4327" stroke="white" stroke-width="0.264059"/>
<g filter="url(#filter3_i_1101_505)">
<path d="M86.291 98.7676L52.4914 109.726L49.7188 129.663L79.4254 120.024L86.291 98.7676Z" fill="#5F00FF" fill-opacity="0.4"/>
</g>
<g filter="url(#filter4_i_1101_505)">
<path d="M19.8799 120.289L38.1 114.348L49.1905 129.663L19.8799 120.289Z" fill="#5C00F7" fill-opacity="0.4"/>
</g>
<g filter="url(#filter5_i_1101_505)">
<path d="M38.3643 114.215L52.2274 109.858L49.4548 129.927L38.3643 114.215Z" fill="#762DF1" fill-opacity="0.4"/>
</g>
<g filter="url(#filter6_i_1101_505)">
<path d="M15.9198 84.377L1.39648 94.9393L19.7486 120.025L37.7047 114.084L15.9198 84.377Z" fill="#7D3BED" fill-opacity="0.47"/>
</g>
<g filter="url(#filter7_i_1101_505)">
<path d="M97.3816 95.0713L86.4232 98.7681L80.2178 118.837L97.3816 95.0713Z" fill="#550BD1" fill-opacity="0.4"/>
</g>
<defs>
<filter id="filter0_b_1101_505" x="-0.0562378" y="36.7143" width="99.1125" height="94.3654" filterUnits="userSpaceOnUse" color-interpolation-filters="sRGB">
<feFlood flood-opacity="0" result="BackgroundImageFix"/>
<feGaussianBlur in="BackgroundImageFix" stdDeviation="0.528119"/>
<feComposite in2="SourceAlpha" operator="in" result="effect1_backgroundBlur_1101_505"/>
<feBlend mode="normal" in="SourceGraphic" in2="effect1_backgroundBlur_1101_505" result="shape"/>
</filter>
<filter id="filter1_dd_1101_505" x="1.64709" y="0.393183" width="95.8572" height="95.8572" filterUnits="userSpaceOnUse" color-interpolation-filters="sRGB">
<feFlood flood-opacity="0" result="BackgroundImageFix"/>
<feColorMatrix in="SourceAlpha" type="matrix" values="0 0 0 0 0 0 0 0 0 0 0 0 0 0 0 0 0 0 127 0" result="hardAlpha"/>
<feMorphology radius="3.06742" operator="dilate" in="SourceAlpha" result="effect1_dropShadow_1101_505"/>
<feOffset/>
<feGaussianBlur stdDeviation="12.2697"/>
<feColorMatrix type="matrix" values="0 0 0 0 0.878431 0 0 0 0 0.945098 0 0 0 0 0.462745 0 0 0 1 0"/>
<feBlend mode="normal" in2="BackgroundImageFix" result="effect1_dropShadow_1101_505"/>
<feColorMatrix in="SourceAlpha" type="matrix" values="0 0 0 0 0 0 0 0 0 0 0 0 0 0 0 0 0 0 127 0" result="hardAlpha"/>
<feOffset dx="1.05624" dy="1.05624"/>
<feGaussianBlur stdDeviation="1.05624"/>
<feComposite in2="hardAlpha" operator="out"/>
<feColorMatrix type="matrix" values="0 0 0 0 0.65098 0 0 0 0 0.65098 0 0 0 0 0.65098 0 0 0 0.3 0"/>
<feBlend mode="normal" in2="effect1_dropShadow_1101_505" result="effect2_dropShadow_1101_505"/>
<feBlend mode="normal" in="SourceGraphic" in2="effect2_dropShadow_1101_505" result="shape"/>
</filter>
<filter id="filter2_bi_1101_505" x="-4.28119" y="32.4893" width="107.562" height="102.815" filterUnits="userSpaceOnUse" color-interpolation-filters="sRGB">
<feFlood flood-opacity="0" result="BackgroundImageFix"/>
<feGaussianBlur in="BackgroundImageFix" stdDeviation="2.64059"/>
<feComposite in2="SourceAlpha" operator="in" result="effect1_backgroundBlur_1101_505"/>
<feBlend mode="normal" in="SourceGraphic" in2="effect1_backgroundBlur_1101_505" result="shape"/>
<feColorMatrix in="SourceAlpha" type="matrix" values="0 0 0 0 0 0 0 0 0 0 0 0 0 0 0 0 0 0 127 0" result="hardAlpha"/>
<feOffset/>
<feGaussianBlur stdDeviation="1.3203"/>
<feComposite in2="hardAlpha" operator="arithmetic" k2="-1" k3="1"/>
<feColorMatrix type="matrix" values="0 0 0 0 1 0 0 0 0 1 0 0 0 0 1 0 0 0 1 0"/>
<feBlend mode="normal" in2="shape" result="effect2_innerShadow_1101_505"/>
</filter>
<filter id="filter3_i_1101_505" x="49.7188" y="97.4473" width="36.5723" height="32.2148" filterUnits="userSpaceOnUse" color-interpolation-filters="sRGB">
<feFlood flood-opacity="0" result="BackgroundImageFix"/>
<feBlend mode="normal" in="SourceGraphic" in2="BackgroundImageFix" result="shape"/>
<feColorMatrix in="SourceAlpha" type="matrix" values="0 0 0 0 0 0 0 0 0 0 0 0 0 0 0 0 0 0 127 0" result="hardAlpha"/>
<feOffset dy="-1.3203"/>
<feGaussianBlur stdDeviation="1.3203"/>
<feComposite in2="hardAlpha" operator="arithmetic" k2="-1" k3="1"/>
<feColorMatrix type="matrix" values="0 0 0 0 0.343233 0 0 0 0 0.0256423 0 0 0 0 0.879167 0 0 0 0.6 0"/>
<feBlend mode="normal" in2="shape" result="effect1_innerShadow_1101_505"/>
</filter>
<filter id="filter4_i_1101_505" x="19.8799" y="113.027" width="29.3105" height="16.6357" filterUnits="userSpaceOnUse" color-interpolation-filters="sRGB">
<feFlood flood-opacity="0" result="BackgroundImageFix"/>
<feBlend mode="normal" in="SourceGraphic" in2="BackgroundImageFix" result="shape"/>
<feColorMatrix in="SourceAlpha" type="matrix" values="0 0 0 0 0 0 0 0 0 0 0 0 0 0 0 0 0 0 127 0" result="hardAlpha"/>
<feOffset dy="-1.3203"/>
<feGaussianBlur stdDeviation="1.3203"/>
<feComposite in2="hardAlpha" operator="arithmetic" k2="-1" k3="1"/>
<feColorMatrix type="matrix" values="0 0 0 0 0.502907 0 0 0 0 0.208333 0 0 0 0 1 0 0 0 0.8 0"/>
<feBlend mode="normal" in2="shape" result="effect1_innerShadow_1101_505"/>
</filter>
<filter id="filter5_i_1101_505" x="38.3643" y="108.538" width="13.8633" height="21.3887" filterUnits="userSpaceOnUse" color-interpolation-filters="sRGB">
<feFlood flood-opacity="0" result="BackgroundImageFix"/>
<feBlend mode="normal" in="SourceGraphic" in2="BackgroundImageFix" result="shape"/>
<feColorMatrix in="SourceAlpha" type="matrix" values="0 0 0 0 0 0 0 0 0 0 0 0 0 0 0 0 0 0 127 0" result="hardAlpha"/>
<feOffset dy="-1.3203"/>
<feGaussianBlur stdDeviation="1.3203"/>
<feComposite in2="hardAlpha" operator="arithmetic" k2="-1" k3="1"/>
<feColorMatrix type="matrix" values="0 0 0 0 0.502907 0 0 0 0 0.208333 0 0 0 0 1 0 0 0 0.8 0"/>
<feBlend mode="normal" in2="shape" result="effect1_innerShadow_1101_505"/>
</filter>
<filter id="filter6_i_1101_505" x="1.39648" y="83.0567" width="36.3086" height="36.9687" filterUnits="userSpaceOnUse" color-interpolation-filters="sRGB">
<feFlood flood-opacity="0" result="BackgroundImageFix"/>
<feBlend mode="normal" in="SourceGraphic" in2="BackgroundImageFix" result="shape"/>
<feColorMatrix in="SourceAlpha" type="matrix" values="0 0 0 0 0 0 0 0 0 0 0 0 0 0 0 0 0 0 127 0" result="hardAlpha"/>
<feOffset dy="-1.3203"/>
<feGaussianBlur stdDeviation="1.3203"/>
<feComposite in2="hardAlpha" operator="arithmetic" k2="-1" k3="1"/>
<feColorMatrix type="matrix" values="0 0 0 0 0.502907 0 0 0 0 0.208333 0 0 0 0 1 0 0 0 0.52 0"/>
<feBlend mode="normal" in2="shape" result="effect1_innerShadow_1101_505"/>
</filter>
<filter id="filter7_i_1101_505" x="80.2178" y="93.751" width="17.1641" height="25.0859" filterUnits="userSpaceOnUse" color-interpolation-filters="sRGB">
<feFlood flood-opacity="0" result="BackgroundImageFix"/>
<feBlend mode="normal" in="SourceGraphic" in2="BackgroundImageFix" result="shape"/>
<feColorMatrix in="SourceAlpha" type="matrix" values="0 0 0 0 0 0 0 0 0 0 0 0 0 0 0 0 0 0 127 0" result="hardAlpha"/>
<feOffset dy="-1.3203"/>
<feGaussianBlur stdDeviation="1.3203"/>
<feComposite in2="hardAlpha" operator="arithmetic" k2="-1" k3="1"/>
<feColorMatrix type="matrix" values="0 0 0 0 0.502907 0 0 0 0 0.208333 0 0 0 0 1 0 0 0 0.8 0"/>
<feBlend mode="normal" in2="shape" result="effect1_innerShadow_1101_505"/>
</filter>
<linearGradient id="paint0_linear_1101_505" x1="212.712" y1="-43.169" x2="116.088" y2="58.8228" gradientUnits="userSpaceOnUse">
<stop stop-color="white"/>
<stop offset="1" stop-color="white" stop-opacity="0"/>
<stop offset="1" stop-color="#9928CE"/>
<stop offset="1" stop-color="white"/>
</linearGradient>
<linearGradient id="paint1_linear_1101_505" x1="43.9092" y1="20.4743" x2="72.5597" y2="77.9072" gradientUnits="userSpaceOnUse">
<stop offset="0.0102038" stop-color="white"/>
<stop offset="0.754955" stop-color="#D3F604"/>
</linearGradient>
<radialGradient id="paint2_angular_1101_505" cx="0" cy="0" r="1" gradientUnits="userSpaceOnUse" gradientTransform="translate(59.3571 52.1617) rotate(-157.857) scale(45.1862 35.284)">
<stop stop-color="white"/>
<stop offset="0.448983" stop-color="#721EFF"/>
</radialGradient>
<radialGradient id="paint3_angular_1101_505" cx="0" cy="0" r="1" gradientUnits="userSpaceOnUse" gradientTransform="translate(61.4696 52.5578) rotate(-173.271) scale(47.3285 45.0517)">
<stop offset="0.0340228" stop-color="white" stop-opacity="0"/>
<stop offset="0.883004" stop-color="#7A2BFF"/>
</radialGradient>
<radialGradient id="paint4_angular_1101_505" cx="0" cy="0" r="1" gradientUnits="userSpaceOnUse" gradientTransform="translate(59.8853 50.8415) rotate(18.2557) scale(40.0399 38.0802)">
<stop stop-color="#6409FF"/>
<stop offset="1" stop-color="white" stop-opacity="0"/>
</radialGradient>
</defs>
</svg>
