<svg width="375" height="298" viewBox="0 0 375 298" fill="none" xmlns="http://www.w3.org/2000/svg">
<path d="M-52.5876 263.482C-53.3679 263.482 -54.0014 262.95 -53.9936 262.17C-53.6016 223.218 -36.6162 39.1514 -19.5005 6.35124C-2.18381 -26.8341 102.416 103.283 141.916 83.8969C278.08 17.0679 296.193 86.1324 338 72.3866C379.684 58.6807 416.132 -23.8838 459.537 41.7778C459.768 42.1262 459.846 42.5852 459.725 42.9849L392.927 263.482H-52.5876Z" fill="url(#paint0_linear_1102_506)"/>
<path d="M423.003 297.609C423.783 297.609 424.416 297.026 424.414 296.246C424.304 259.027 419.76 153.003 403.556 120.227C387.149 87.042 278.007 145.627 247.691 120.228C217.374 94.8288 146.237 150.93 106.627 137.184C67.0942 123.465 32.8351 -25.6503 -8.33998 40.0872C-8.48886 40.3249 -8.57843 40.6288 -8.56803 40.9091L0.959934 297.609H423.003Z" fill="url(#paint1_linear_1102_506)"/>
<path d="M399.356 145.348C431.945 183.06 397.345 256.721 423.416 297.098C413.051 298.531 16.9867 295.649 7.27814 297.098L1.26219 127.209C-6.25847 91.7854 -8.67203 73.7817 7.27837 74.2116C40.7429 75.1137 55.5044 165.948 118.176 170.519C158.262 175.607 198.421 134.733 231.951 145.348C264.54 181.916 389.115 133.498 399.356 145.348Z" fill="white" fill-opacity="0.09"/>
<g filter="url(#filter0_bi_1102_506)">
<path d="M394.866 297.61C395.669 297.61 396.317 296.981 396.351 296.179C397.493 268.928 429.927 212.885 412.916 188.676C395.602 164.036 277.358 225.264 245.366 206.404C213.374 187.545 141.002 254.351 99.2018 244.145C57.8578 234.049 45.9197 97.5403 1.88488 94.5631C1.08374 94.5089 0.416016 95.1646 0.416016 95.9676L0.416042 297.61H394.866Z" fill="url(#paint2_linear_1102_506)"/>
<path d="M394.866 297.61C395.669 297.61 396.317 296.981 396.351 296.179C397.493 268.928 429.927 212.885 412.916 188.676C395.602 164.036 277.358 225.264 245.366 206.404C213.374 187.545 141.002 254.351 99.2018 244.145C57.8578 234.049 45.9197 97.5403 1.88488 94.5631C1.08374 94.5089 0.416016 95.1646 0.416016 95.9676L0.416042 297.61H394.866Z" fill="url(#paint3_linear_1102_506)" fill-opacity="0.2"/>
<path d="M396.23 296.173C396.199 296.912 395.603 297.489 394.866 297.489H0.5372L0.537174 95.9676C0.537174 95.231 1.14918 94.6348 1.87671 94.684C12.8202 95.4239 21.7945 104.463 29.7497 117.834C37.701 131.197 44.61 148.845 51.4392 166.728C51.8991 167.932 52.3585 169.137 52.8179 170.342C59.1794 187.028 65.5275 203.678 72.6396 216.989C76.4527 224.126 80.4883 230.308 84.8673 235.023C89.2464 239.739 93.9745 242.993 99.173 244.262C109.658 246.822 122.046 244.551 135.215 240.016C147.576 235.759 160.642 229.501 173.49 223.347C174.333 222.944 175.174 222.541 176.014 222.139C189.674 215.604 203.017 209.345 214.943 205.897C226.872 202.447 237.351 201.82 245.304 206.509C249.329 208.881 254.699 209.989 261.037 210.168C267.377 210.347 274.697 209.597 282.628 208.245C298.01 205.622 315.711 200.731 333.055 195.937L334.678 195.489C352.542 190.554 369.937 185.802 383.948 183.823C390.953 182.834 397.104 182.539 402.04 183.257C406.977 183.976 410.68 185.705 412.817 188.746C417.046 194.765 418.209 202.774 417.544 211.846C416.879 220.916 414.387 231.033 411.325 241.252C409.596 247.023 407.688 252.817 405.826 258.474C404.388 262.841 402.978 267.126 401.698 271.253C398.762 280.718 396.516 289.343 396.23 296.173Z" stroke="url(#paint4_linear_1102_506)" stroke-width="0.242316"/>
</g>
<defs>
<filter id="filter0_bi_1102_506" x="-3.70335" y="90.4402" width="425.663" height="211.289" filterUnits="userSpaceOnUse" color-interpolation-filters="sRGB">
<feFlood flood-opacity="0" result="BackgroundImageFix"/>
<feGaussianBlur in="BackgroundImageFix" stdDeviation="2.05968"/>
<feComposite in2="SourceAlpha" operator="in" result="effect1_backgroundBlur_1102_506"/>
<feBlend mode="normal" in="SourceGraphic" in2="effect1_backgroundBlur_1102_506" result="shape"/>
<feColorMatrix in="SourceAlpha" type="matrix" values="0 0 0 0 0 0 0 0 0 0 0 0 0 0 0 0 0 0 127 0" result="hardAlpha"/>
<feOffset/>
<feGaussianBlur stdDeviation="0.484632"/>
<feComposite in2="hardAlpha" operator="arithmetic" k2="-1" k3="1"/>
<feColorMatrix type="matrix" values="0 0 0 0 1 0 0 0 0 1 0 0 0 0 1 0 0 0 0.63 0"/>
<feBlend mode="normal" in2="shape" result="effect2_innerShadow_1102_506"/>
</filter>
<linearGradient id="paint0_linear_1102_506" x1="271.916" y1="179.906" x2="484.848" y2="16.6633" gradientUnits="userSpaceOnUse">
<stop stop-color="#9052FA"/>
<stop offset="0.92339" stop-color="#DAFF01"/>
</linearGradient>
<linearGradient id="paint1_linear_1102_506" x1="36.916" y1="115.746" x2="422.489" y2="-114.523" gradientUnits="userSpaceOnUse">
<stop stop-color="#9052FA"/>
<stop offset="1" stop-color="#DAFF01"/>
</linearGradient>
<linearGradient id="paint2_linear_1102_506" x1="-288.783" y1="174.332" x2="54.1421" y2="638.643" gradientUnits="userSpaceOnUse">
<stop stop-color="white" stop-opacity="0.16"/>
<stop offset="1" stop-color="white" stop-opacity="0.24"/>
</linearGradient>
<linearGradient id="paint3_linear_1102_506" x1="0.415834" y1="94.5137" x2="0.415834" y2="172.733" gradientUnits="userSpaceOnUse">
<stop stop-color="white"/>
<stop offset="1" stop-color="white" stop-opacity="0"/>
</linearGradient>
<linearGradient id="paint4_linear_1102_506" x1="0.41563" y1="94.5137" x2="-42.2335" y2="496.177" gradientUnits="userSpaceOnUse">
<stop offset="0.331091" stop-color="white" stop-opacity="0.05"/>
<stop offset="1" stop-color="#AB4BE4" stop-opacity="0.16"/>
</linearGradient>
</defs>
</svg>
